<?xml version="1.0" encoding="UTF-8"?>
<svg version="1.1" xmlns="http://www.w3.org/2000/svg" width="160" height="160">
<path d="M0 0 C13.88435652 11.4850268 27.84214597 27.51937699 31 46 C31.35164443 51.16038201 30.53548352 54.84091832 27.3125 58.9375 C23.84597652 62.88989739 19.74178492 63.88174303 14.60546875 64.23046875 C12.91357422 64.20919922 12.91357422 64.20919922 11.1875 64.1875 C9.47626953 64.17783203 9.47626953 64.17783203 7.73046875 64.16796875 C5 64 5 64 4 63 C3.58370306 60.73282887 3.19257246 58.46102435 2.8125 56.1875 C0.10736721 41.83251281 -7.15980227 30.88350497 -18.875 22.125 C-30.86849796 14.19170338 -45.11017499 12.27984107 -59.140625 14.49609375 C-74.25611687 18.31815384 -85.09338507 26.86605799 -93.37890625 40.01953125 C-96.97935858 46.63915806 -98.26169035 53.70827644 -99.5703125 61.06640625 C-100 63 -100 63 -101 64 C-108.17270612 64.54055177 -114.78436067 64.88477458 -121 61 C-125.36502247 56.82476111 -126.61045762 53.96679995 -127 48 C-126.48221735 45.32620437 -125.91198632 42.99484413 -125.0625 40.4375 C-124.84231201 39.75147705 -124.62212402 39.0654541 -124.39526367 38.35864258 C-121.51044993 29.88724051 -116.94898941 22.42348412 -112 15 C-111.34 15 -110.68 15 -110 15 C-109.74734375 14.42636719 -109.4946875 13.85273438 -109.234375 13.26171875 C-102.43659576 0.80629412 -85.91547589 -7.6378194 -73 -12 C-72.07832031 -12.31839844 -71.15664062 -12.63679687 -70.20703125 -12.96484375 C-46.45673899 -19.7730517 -19.6800411 -14.61552703 0 0 Z M-46 -7 C-46.33 -3.04 -46.66 0.92 -47 5 C-42.38492226 6.04214691 -42.38492226 6.04214691 -38 5 C-38 1.7 -38 -1.6 -38 -5 C-41.91063224 -6.47047336 -41.91063224 -6.47047336 -46 -7 Z M-53 -7 C-54.98 -6.67 -56.96 -6.34 -59 -6 C-58.67 -2.04 -58.34 1.92 -58 6 C-55.36 6 -52.72 6 -50 6 C-50 5.34 -50 4.68 -50 4 C-51.98 4 -53.96 4 -56 4 C-56 3.01 -56 2.02 -56 1 C-54.68 0.67 -53.36 0.34 -52 0 C-53.32 -0.33 -54.64 -0.66 -56 -1 C-55.67 -1.99 -55.34 -2.98 -55 -4 C-54.01 -4.33 -53.02 -4.66 -52 -5 C-52.33 -5.66 -52.66 -6.32 -53 -7 Z M-29 -4 C-30.17249353 -2.54634731 -31.33783816 -1.08692581 -32.5 0.375 C-33.1496875 1.18710937 -33.799375 1.99921875 -34.46875 2.8359375 C-36.19253615 4.83026843 -36.19253615 4.83026843 -36 7 C-35.01 7 -34.02 7 -33 7 C-33 6.34 -33 5.68 -33 5 C-31.35 5.33 -29.7 5.66 -28 6 C-28 6.99 -28 7.98 -28 9 C-27.34 9 -26.68 9 -26 9 C-26 5.04 -26 1.08 -26 -3 C-26.99 -3.33 -27.98 -3.66 -29 -4 Z M-73 -2 C-72.01 1.63 -71.02 5.26 -70 9 C-65.87026372 8.43260132 -65.87026372 8.43260132 -62 7 C-62 5.35 -62 3.7 -62 2 C-62.66 2 -63.32 2 -64 2 C-64 0.35 -64 -1.3 -64 -3 C-67.76624671 -4.25541557 -69.37188934 -3.37061958 -73 -2 Z M-19 1 C-19.80967438 3.91482778 -20.21845993 5.46113217 -19.0625 8.3125 C-18.711875 8.869375 -18.36125 9.42625 -18 10 C-20.97 9.505 -20.97 9.505 -24 9 C-22.84315671 11.0995533 -22.84315671 11.0995533 -21 13 C-18.37374861 13.33425735 -18.37374861 13.33425735 -16 13 C-14.93648325 9.61608307 -14.78557018 8.4195366 -16.4375 5.1875 C-16.953125 4.465625 -17.46875 3.74375 -18 3 C-16.02 3.66 -14.04 4.32 -12 5 C-12.66 3.68 -13.32 2.36 -14 1 C-15.65 1 -17.3 1 -19 1 Z M-86.75 4.375 C-87.86375 5.179375 -87.86375 5.179375 -89 6 C-87.72278474 10.99275057 -85.82669043 13.57611908 -82 17 C-81.67 16.34 -81.34 15.68 -81 15 C-81.33 14.01 -81.66 13.02 -82 12 C-81.484375 11.5875 -80.96875 11.175 -80.4375 10.75 C-78.77027549 9.11153172 -78.77027549 9.11153172 -79.0625 6.9375 C-79.88720085 4.88793542 -79.88720085 4.88793542 -81.75 3.5625 C-84.15139938 2.70285047 -84.15139938 2.70285047 -86.75 4.375 Z M-4.9453125 11.75 C-6.02425781 12.86375 -6.02425781 12.86375 -7.125 14 C-7.84945312 14.7425 -8.57390625 15.485 -9.3203125 16.25 C-9.87460938 16.8275 -10.42890625 17.405 -11 18 C-9.515 18.99 -9.515 18.99 -8 20 C-7.34 19.34 -6.68 18.68 -6 18 C-5.67 20.31 -5.34 22.62 -5 25 C-2.7763932 23.0745356 -2.7763932 23.0745356 -2 20 C0.0625 18.8125 0.0625 18.8125 2 18 C2.32835656 14.32728956 2.32835656 14.32728956 0.625 11.1875 C-1.93103265 9.31962999 -2.61010834 9.64925409 -4.9453125 11.75 Z M-97 12 C-97.33 12.66 -97.66 13.32 -98 14 C-97.06553465 16.03144641 -96.06775224 18.03533587 -95 20 C-95.5775 19.67 -96.155 19.34 -96.75 19 C-99.19883862 17.72924102 -99.19883862 17.72924102 -103 18 C-101.60846256 22.42761914 -99.47928514 24.9556255 -96 28 C-95.34 28 -94.68 28 -94 28 C-94.309375 27.38125 -94.61875 26.7625 -94.9375 26.125 C-95.625 24.75 -96.3125 23.375 -97 22 C-95.35 22.33 -93.7 22.66 -92 23 C-92.33 21.02 -92.66 19.04 -93 17 C-92.38125 17.495 -91.7625 17.99 -91.125 18.5 C-89.16119096 20.19222773 -89.16119096 20.19222773 -87 20 C-88.49128001 16.20401451 -90.65733441 14.28279601 -94 12 C-94.99 12 -95.98 12 -97 12 Z M1.875 23.5 C1.15054688 24.1496875 0.42609375 24.799375 -0.3203125 25.46875 C-0.87460938 25.9740625 -1.42890625 26.479375 -2 27 C-1.34 27.66 -0.68 28.32 0 29 C2.97 26.69 5.94 24.38 9 22 C8.67 21.34 8.34 20.68 8 20 C5.05645643 20 4.02421163 21.55877659 1.875 23.5 Z M12 26 C7.05 28.97 7.05 28.97 2 32 C3.54042748 36.80304035 3.54042748 36.80304035 6 39 C8.09291157 38.91428339 8.09291157 38.91428339 10 38 C10.33 37.01 10.66 36.02 11 35 C12.32 35 13.64 35 15 35 C14.67039784 29.98464948 14.67039784 29.98464948 12 26 Z M-110 28 C-109.67566492 33.35152885 -106.50295176 36.28280043 -103 40 C-102.34 39.67 -101.68 39.34 -101 39 C-101.185625 38.401875 -101.37125 37.80375 -101.5625 37.1875 C-102 35 -102 35 -101 32 C-99.68 32 -98.36 32 -97 32 C-97 31.34 -97 30.68 -97 30 C-98.41538717 29.66127487 -99.83237963 29.32925376 -101.25 29 C-102.03890625 28.814375 -102.8278125 28.62875 -103.640625 28.4375 C-106.25556002 27.87845172 -106.25556002 27.87845172 -110 28 Z M-114 38 C-116.31282587 41.46923881 -116.42478586 42.92205575 -116 47 C-115 49 -115 49 -113 50 C-109.85075452 50.39365568 -107.88090884 50.52854531 -105.125 48.875 C-103.5317901 46.21965017 -103.79785968 44.03210482 -104 41 C-104.66 41 -105.32 41 -106 41 C-106.66 42.98 -107.32 44.96 -108 47 C-109.65 46.67 -111.3 46.34 -113 46 C-112.67 43.69 -112.34 41.38 -112 39 C-112.66 38.67 -113.32 38.34 -114 38 Z M7 41 C7.33 41.99 7.66 42.98 8 44 C8.99 44 9.98 44 11 44 C10.67 46.64 10.34 49.28 10 52 C11.48819457 51.0980639 12.96532813 50.17785871 14.4375 49.25 C15.26121094 48.73953125 16.08492187 48.2290625 16.93359375 47.703125 C19.42204058 45.9959175 19.42204058 45.9959175 20 42 C15.71 41.67 11.42 41.34 7 41 Z " fill="#F00707" transform="translate(128,15)"/>
<path d="M0 0 C1.25390625 1.65234375 1.25390625 1.65234375 2.5625 3.9375 C9.10551091 14.13689936 17.82370855 19.72372766 29 24 C29.67417969 24.26683594 30.34835938 24.53367188 31.04296875 24.80859375 C43.36543353 28.75287056 57.61233943 26.00538202 69.0625 20.875 C78.2556934 16.00114826 85.02546285 8.36830865 91 0 C97.69814509 1.86924979 101.30466958 4.48794778 104.75 10.5 C107.56129893 15.69556511 108.63191135 20.02908256 108 26 C106.33200677 28.34007842 104.9434599 29.96659185 102.875 31.875 C102.33584961 32.38820801 101.79669922 32.90141602 101.24121094 33.43017578 C83.80684627 49.50920114 62.96974539 55.72984412 39.5625 55.31640625 C31.99143387 55.00740953 25.15688541 53.40408085 18 51 C16.94683594 50.649375 15.89367188 50.29875 14.80859375 49.9375 C6.72083543 46.90063638 -0.26626172 42.34118566 -7 37 C-7.54736816 36.56880859 -8.09473633 36.13761719 -8.65869141 35.69335938 C-17.37524089 28.61229688 -17.37524089 28.61229688 -18.66796875 23.20703125 C-18.4056047 16.31754577 -15.38316899 10.22970377 -11 5 C-7.51194753 2.0779334 -4.61851527 0 0 0 Z M0 16 C-0.99 16.66 -1.98 17.32 -3 18 C-3 18.66 -3 19.32 -3 20 C-4.98 20.99 -4.98 20.99 -7 22 C-7 23.32 -7 24.64 -7 26 C-5.87105124 25.06725891 -4.74699124 24.12859878 -3.625 23.1875 C-2.99851562 22.66542969 -2.37203125 22.14335938 -1.7265625 21.60546875 C0.2221048 19.91774261 0.2221048 19.91774261 2 17 C1.34 16.67 0.68 16.34 0 16 Z M86 17 C85.01 18.485 85.01 18.485 84 20 C85.65 23.3 87.3 26.6 89 30 C89.66 30 90.32 30 91 30 C91.33 28.35 91.66 26.7 92 25 C93.65 24.67 95.3 24.34 97 24 C97 23.34 97 22.68 97 22 C93.37 20.35 89.74 18.7 86 17 Z M4 21 C2.30932426 22.69153156 2.30932426 22.69153156 0.8125 24.875 C0.28269531 25.59429687 -0.24710938 26.31359375 -0.79296875 27.0546875 C-2.17574515 28.9016799 -2.17574515 28.9016799 -2 31 C-0.00016466 30.20882096 -0.00016466 30.20882096 2 29 C2.33 28.01 2.66 27.02 3 26 C4 27 4 27 4.09765625 28.84765625 C4.06510417 30.8984375 4.03255208 32.94921875 4 35 C4.99 35 5.98 35 7 35 C8.69547681 33.00473828 8.69547681 33.00473828 10.1875 30.5 C10.71730469 29.6646875 11.24710938 28.829375 11.79296875 27.96875 C12.19128906 27.3190625 12.58960938 26.669375 13 26 C12.01 26 11.02 26 10 26 C8.29467677 27.94009522 8.29467677 27.94009522 7 30 C7 27.03 7 24.06 7 21 C6.01 21 5.02 21 4 21 Z M78 24 C78 27.60573896 78.81707462 28.41336566 81 31.1875 C81.8353125 32.26064453 81.8353125 32.26064453 82.6875 33.35546875 C83.120625 33.89816406 83.55375 34.44085938 84 35 C84.66 34.34 85.32 33.68 86 33 C84.85793642 31.49712782 83.71125043 29.99776716 82.5625 28.5 C81.92441406 27.6646875 81.28632812 26.829375 80.62890625 25.96875 C80.09136719 25.3190625 79.55382812 24.669375 79 24 C78.67 24 78.34 24 78 24 Z M16 28 C15.32645501 29.43429001 14.66140299 30.87257057 14 32.3125 C13.62875 33.11300781 13.2575 33.91351563 12.875 34.73828125 C11.81959333 37.06213959 11.81959333 37.06213959 12 40 C16.62987077 41.76697745 16.62987077 41.76697745 21.375 41.25 C23.14258418 40.0783929 23.14258418 40.0783929 24 38 C24.4167552 35.04211431 24.4167552 35.04211431 24 32 C21.55791779 29.47070057 19.35021492 28.76717106 16 28 Z M70 28 C69.34 28.66 68.68 29.32 68 30 C68.32041397 32.60280568 68.32041397 32.60280568 69 35 C71.97 35.495 71.97 35.495 75 36 C73.02 36.99 73.02 36.99 71 38 C71.33 38.99 71.66 39.98 72 41 C74.52363988 40.37466625 74.52363988 40.37466625 77 39 C77.89386164 36.45224694 77.89386164 36.45224694 78 34 C75.29120665 32.64560332 72.99066732 32.93498549 70 33 C71 31 71 31 74 30 C74 29.34 74 28.68 74 28 C72.68 28 71.36 28 70 28 Z M57 33 C57.30893932 34.6256807 57.6222695 36.25052748 57.9375 37.875 C58.11152344 38.77992188 58.28554687 39.68484375 58.46484375 40.6171875 C58.89963701 42.99956317 58.89963701 42.99956317 60 45 C62.31 44.34 64.62 43.68 67 43 C66.67 42.34 66.34 41.68 66 41 C64.35 41.33 62.7 41.66 61 42 C61 41.01 61 40.02 61 39 C61.99 39 62.98 39 64 39 C64 38.34 64 37.68 64 37 C62.68 37 61.36 37 60 37 C60 36.01 60 35.02 60 34 C61.32 34 62.64 34 64 34 C64 33.34 64 32.68 64 32 C60.10540926 31.78918149 60.10540926 31.78918149 57 33 Z M27 36 C26.49901458 39.50689795 26.31712183 41.82393204 28.125 44.9375 C30.88980433 46.50422245 32.88188517 46.38976435 36 46 C38.01951062 45.06402685 38.01951062 45.06402685 39 43 C39.66666667 39.5 39.66666667 39.5 39 36 C34.41786509 32.26194257 31.58213491 32.26194257 27 36 Z M51 34 C49.768606 36.46278801 49.92840804 38.2795055 50 41 C49.401875 40.01 48.80375 39.02 48.1875 38 C47.465625 37.01 46.74375 36.02 46 35 C45.01 35 44.02 35 43 35 C42.97287934 36.43739513 42.95354933 37.87493863 42.9375 39.3125 C42.92589844 40.11300781 42.91429687 40.91351563 42.90234375 41.73828125 C42.90342145 44.16861334 42.90342145 44.16861334 44 47 C44.66 47 45.32 47 46 47 C46 45.02 46 43.04 46 41 C46.763125 41.825 47.52625 42.65 48.3125 43.5 C50.75434142 46.34055197 50.75434142 46.34055197 54 46 C53.67 42.04 53.34 38.08 53 34 C52.34 34 51.68 34 51 34 Z " fill="#F40504" transform="translate(35,105)"/>
<path d="M0 0 C0.44730469 0.40992187 0.89460938 0.81984375 1.35546875 1.2421875 C7.54998579 6.76310034 12.13491668 8.27421895 20.3125 8.625 C21.42334961 8.68300781 21.42334961 8.68300781 22.55664062 8.7421875 C24.37071309 8.83581705 26.18532116 8.91896851 28 9 C28.67189656 11.91555115 29.33769308 14.83226951 30 17.75 C30.19078125 18.575 30.3815625 19.4 30.578125 20.25 C30.84882812 21.44882813 30.84882812 21.44882813 31.125 22.671875 C31.29257812 23.4050293 31.46015625 24.13818359 31.6328125 24.89355469 C32 27 32 27 32 31 C30.2421875 32.38671875 30.2421875 32.38671875 27.875 33.6875 C21.37706109 37.74999094 17.53304755 43.12769403 15.625 50.5625 C15.41875 51.696875 15.2125 52.83125 15 54 C7.10027623 46.93365369 3.06670277 35.17453671 1 25 C0.81308594 24.11054687 0.62617188 23.22109375 0.43359375 22.3046875 C-0.14480222 17.89637229 -0.1059643 13.56504561 -0.0625 9.125 C-0.05798828 8.24585937 -0.05347656 7.36671875 -0.04882812 6.4609375 C-0.03712337 4.30726197 -0.01919069 2.15362183 0 0 Z " fill="#F50404" transform="translate(0,72)"/>
<path d="M0 0 C0.33 0 0.66 0 1 0 C1.52539821 19.5175705 -0.20779224 38.197861 -13 54 C-14.02485345 52.10796286 -14.9194512 50.24591388 -15.58984375 48.19921875 C-17.87041323 41.24955436 -21.47606784 36.25419163 -27.875 32.5625 C-28.90625 32.046875 -29.9375 31.53125 -31 31 C-30.21912565 26.19345302 -29.34161295 21.40944461 -28.4375 16.625 C-28.22963867 15.52091797 -28.22963867 15.52091797 -28.01757812 14.39453125 C-27.67894066 12.59624952 -27.33954809 10.79811001 -27 9 C-25.9378125 8.97421875 -24.875625 8.9484375 -23.78125 8.921875 C-12.80655088 8.58607618 -12.80655088 8.58607618 -3 4 C-1.09667779 1.91444964 -1.09667779 1.91444964 0 0 Z " fill="#FA0202" transform="translate(159,72)"/>
<path d="M0 0 C1.32 0 2.64 0 4 0 C4.33 0.66 4.66 1.32 5 2 C5.99 2.33 6.98 2.66 8 3 C8.2475 3.66 8.495 4.32 8.75 5 C9.1625 5.66 9.575 6.32 10 7 C13.56206661 7.81870185 13.56206661 7.81870185 17 8 C17 8.66 17 9.32 17 10 C17.9590625 10.1546875 17.9590625 10.1546875 18.9375 10.3125 C19.618125 10.539375 20.29875 10.76625 21 11 C21.495 12.485 21.495 12.485 22 14 C22.66 14 23.32 14 24 14 C24 13.34 24 12.68 24 12 C31.41312741 11.62934363 31.41312741 11.62934363 34.375 13.5 C34.91125 13.995 35.4475 14.49 36 15 C36.66 15 37.32 15 38 15 C38.495 20.94 38.495 20.94 39 27 C39.66 27 40.32 27 41 27 C40.505 23.535 40.505 23.535 40 20 C43.69418201 21.231394 45.35109746 23.20791354 48 26 C48.66 25.01 49.32 24.02 50 23 C49.505 25.475 49.505 25.475 49 28 C43.66666667 28 38.33333333 28 33 28 C31.31088658 28.14943184 29.62329899 28.31692681 27.9375 28.5 C24.26059373 28.89810113 20.6993208 29 17 29 C16.67 28.01 16.34 27.02 16 26 C16 26.99 16 27.98 16 29 C24.65043526 33.96097251 38.06628077 34.43227705 47.625 32.125 C50.14092555 31.23221695 50.14092555 31.23221695 51 29 C51.66 29 52.32 29 53 29 C53 29.99 53 30.98 53 32 C55.64 32 58.28 32 61 32 C50.3397642 38.15013604 31.89271718 36.28187813 20.375 33.3125 C17.88343579 32.6119326 15.45673844 31.82524695 13 31 C11.94683594 30.649375 10.89367187 30.29875 9.80859375 29.9375 C2.8939239 27.3411181 -9.49618223 22.00763555 -13 15 C-10.03 15.495 -10.03 15.495 -7 16 C-7 16.66 -7 17.32 -7 18 C-4.96758273 17.36020151 -4.96758273 17.36020151 -3 16 C-2.18828772 13.44480079 -2.18828772 13.44480079 -2 11 C-3.98 11.33 -5.96 11.66 -8 12 C-7.67 11.01 -7.34 10.02 -7 9 C-7 9.66 -7 10.32 -7 11 C-5.35 9.35 -3.7 7.7 -2 6 C-1.34 6.33 -0.68 6.66 0 7 C0 9.64 0 12.28 0 15 C2.96404505 12.19195732 5.44499019 9.81684226 7 6 C5.02 7.65 3.04 9.3 1 11 C1.33 7.7 1.66 4.4 2 1 C1.34 0.67 0.68 0.34 0 0 Z M11 8 C10.32645501 9.43429001 9.66140299 10.87257057 9 12.3125 C8.62875 13.11300781 8.2575 13.91351563 7.875 14.73828125 C6.81959333 17.06213959 6.81959333 17.06213959 7 20 C11.62987077 21.76697745 11.62987077 21.76697745 16.375 21.25 C18.14258418 20.0783929 18.14258418 20.0783929 19 18 C19.4167552 15.04211431 19.4167552 15.04211431 19 12 C16.55791779 9.47070057 14.35021492 8.76717106 11 8 Z M22 16 C21.49901458 19.50689795 21.31712183 21.82393204 23.125 24.9375 C25.88980433 26.50422245 27.88188517 26.38976435 31 26 C33.01951062 25.06402685 33.01951062 25.06402685 34 23 C34.66666667 19.5 34.66666667 19.5 34 16 C29.41786509 12.26194257 26.58213491 12.26194257 22 16 Z " fill="#EA0909" transform="translate(40,125)"/>
<path d="M0 0 C3.22886009 -0.11667875 6.45717445 -0.18740546 9.6875 -0.25 C11.05551758 -0.30027344 11.05551758 -0.30027344 12.45117188 -0.3515625 C16.76996391 -0.41438129 19.31587514 -0.39337179 23.125 1.796875 C25 4 25 4 25.3125 7.5 C25.209375 8.655 25.10625 9.81 25 11 C25 12.32 25 13.64 25 15 C25.33 15.33 25.66 15.66 26 16 C26.59063136 23.20570265 26.59063136 23.20570265 24.1875 26.4375 C21.05602486 28.67426796 18.55171599 29.12703896 14.8046875 29.1328125 C14.00675781 29.13410156 13.20882812 29.13539062 12.38671875 29.13671875 C11.14341797 29.13091797 11.14341797 29.13091797 9.875 29.125 C8.62009766 29.13080078 8.62009766 29.13080078 7.33984375 29.13671875 C1.12664874 29.12664874 1.12664874 29.12664874 0 28 C-0.04080783 26.00041636 -0.04254356 23.99954746 0 22 C0.99 22 1.98 22 3 22 C3 17.05 3 12.1 3 7 C2.01 6.67 1.02 6.34 0 6 C0 4.02 0 2.04 0 0 Z M13 7 C13 7.99 13 8.98 13 10 C13.99 10 14.98 10 16 10 C16 9.01 16 8.02 16 7 C15.01 7 14.02 7 13 7 Z M13 18 C13 19.32 13 20.64 13 22 C14.32 21.67 15.64 21.34 17 21 C17 20.01 17 19.02 17 18 C15.68 18 14.36 18 13 18 Z " fill="#020202" transform="translate(65,66)"/>
<path d="M0 0 C3.22886009 -0.11667875 6.45717445 -0.18740546 9.6875 -0.25 C11.05551758 -0.30027344 11.05551758 -0.30027344 12.45117188 -0.3515625 C16.72628686 -0.41374599 19.32156159 -0.37747701 23.1171875 1.734375 C25.22910119 4.27568193 25.61001167 5.25010267 25.4375 8.5 C25.41558594 9.2528125 25.39367187 10.005625 25.37109375 10.78125 C24.97154386 13.17013775 24.07721073 14.85010463 23 17 C23.57518232 19.23377831 23.57518232 19.23377831 25 21 C25.99 21.33 26.98 21.66 28 22 C28.04254356 23.99954746 28.04080783 26.00041636 28 28 C27 29 27 29 23.125 29.3125 C19.29189189 29.29189189 19.29189189 29.29189189 17 27 C16.67 26.34 16.34 25.68 16 25 C15.34 26.32 14.68 27.64 14 29 C9.38 29 4.76 29 0 29 C0 26.69 0 24.38 0 22 C0.99 22 1.98 22 3 22 C2.67 17.05 2.34 12.1 2 7 C1.34 7 0.68 7 0 7 C0 4.69 0 2.38 0 0 Z M12 7 C12 8.65 12 10.3 12 12 C13.32 12 14.64 12 16 12 C16 10.35 16 8.7 16 7 C14.68 7 13.36 7 12 7 Z M12 19 C12 19.99 12 20.98 12 22 C12.99 22.33 13.98 22.66 15 23 C14.67 21.68 14.34 20.36 14 19 C13.34 19 12.68 19 12 19 Z " fill="#020202" transform="translate(94,66)"/>
<path d="M0 0 C2.97 0 5.94 0 9 0 C9 1.98 9 3.96 9 6 C9.99 6.33 10.98 6.66 12 7 C12.33 5.02 12.66 3.04 13 1 C13.33 1 13.66 1 14 1 C14.07329796 5.39787789 14.07396066 8.70415737 13 13 C15.97 13 18.94 13 22 13 C21.79375 11.906875 21.5875 10.81375 21.375 9.6875 C21 6 21 6 23 3 C23 5.97 23 8.94 23 12 C23.66 12.33 24.32 12.66 25 13 C24.67 13.66 24.34 14.32 24 15 C24.99 15 25.98 15 27 15 C27 14.34 27 13.68 27 13 C29.475 13.495 29.475 13.495 32 14 C32 14.99 32 15.98 32 17 C32.66 17 33.32 17 34 17 C34 13.04 34 9.08 34 5 C34.33 5 34.66 5 35 5 C35.495 10.445 35.495 10.445 36 16 C36.99 16 37.98 16 39 16 C38.979375 14.865625 38.95875 13.73125 38.9375 12.5625 C39 9 39 9 40 8 C41.99958364 7.95919217 44.00045254 7.95745644 46 8 C46 8.33 46 8.66 46 9 C44.35 9.33 42.7 9.66 41 10 C41.2475 11.3921875 41.2475 11.3921875 41.5 12.8125 C42 16 42 16 42 19 C40.68 19 39.36 19 38 19 C39.98 19.66 41.96 20.32 44 21 C44 21.33 44 21.66 44 22 C42.35 22.33 40.7 22.66 39 23 C39.66 24.98 40.32 26.96 41 29 C39.93265625 28.56880859 39.93265625 28.56880859 38.84375 28.12890625 C36.07424933 27.02947535 33.29512232 25.96996793 30.5 24.9375 C29.5821875 24.59589844 28.664375 24.25429688 27.71875 23.90234375 C15.76669135 19.9354967 2.86036339 21.58811464 -9 25 C-9 24.01 -9 23.02 -9 22 C-6.09399739 20.74335022 -4.20395416 20 -1 20 C-3.73905345 18.63047327 -5.97087332 18.87378639 -9 19 C-9.66 19.33 -10.32 19.66 -11 20 C-11 18.02 -11 16.04 -11 14 C-10.67 14.99 -10.34 15.98 -10 17 C-7.36 16.34 -4.72 15.68 -2 15 C-2 13.35 -2 11.7 -2 10 C-2.66 10 -3.32 10 -4 10 C-4 6 -4 6 -2.5625 4.4375 C-2.046875 3.963125 -1.53125 3.48875 -1 3 C-0.67 2.01 -0.34 1.02 0 0 Z M7 1 C5.02 1.33 3.04 1.66 1 2 C1.33 5.96 1.66 9.92 2 14 C4.64 14 7.28 14 10 14 C10 13.34 10 12.68 10 12 C8.02 12 6.04 12 4 12 C4 11.01 4 10.02 4 9 C5.32 8.67 6.64 8.34 8 8 C6.68 7.67 5.36 7.34 4 7 C4.33 6.01 4.66 5.02 5 4 C5.99 3.67 6.98 3.34 8 3 C7.67 2.34 7.34 1.68 7 1 Z " fill="#F10605" transform="translate(68,7)"/>
<path d="M0 0 C1.98 1.65 3.96 3.3 6 5 C4.68 5.33 3.36 5.66 2 6 C1.67 7.65 1.34 9.3 1 11 C1.639375 11.20625 2.27875 11.4125 2.9375 11.625 C5 13 5 13 6.0625 15.8125 C6 19 6 19 3.5625 21.875 C2.716875 22.57625 1.87125 23.2775 1 24 C1.99 24.33 2.98 24.66 4 25 C1.525 26.485 1.525 26.485 -1 28 C-0.29660434 30.50965614 -0.29660434 30.50965614 1 33 C2.94285168 33.98617135 2.94285168 33.98617135 5 34 C5.99 33.505 5.99 33.505 7 33 C7 33.66 7 34.32 7 35 C7.99 35.66 8.98 36.32 10 37 C9.38125 37.144375 8.7625 37.28875 8.125 37.4375 C5.96741678 37.93152225 5.96741678 37.93152225 4 39 C5.485 39.495 5.485 39.495 7 40 C7.74513723 42.09993221 8 43.77431099 8 46 C8.66 46.33 9.32 46.66 10 47 C10 47.99 10 48.98 10 50 C8.35 49.67 6.7 49.34 5 49 C5 48.01 5 47.02 5 46 C4.01 46.495 4.01 46.495 3 47 C2.30906104 49.57951874 2.30906104 49.57951874 1.875 52.5625 C1.70742187 53.57441406 1.53984375 54.58632812 1.3671875 55.62890625 C1.24601562 56.41136719 1.12484375 57.19382813 1 58 C2.93822596 57.96694498 4.87585668 57.89750095 6.8125 57.8125 C7.89144531 57.77769531 8.97039062 57.74289063 10.08203125 57.70703125 C13.21776623 57.29007334 13.21776623 57.29007334 14.76171875 54.44921875 C15.17035156 53.64097656 15.57898438 52.83273438 16 52 C16.66 52 17.32 52 18 52 C18 52.99 18 53.98 18 55 C19.32 55.33 20.64 55.66 22 56 C17.18737729 59.9532258 13.47216147 60.13879543 7.3125 60.125 C6.15363281 60.12757812 4.99476563 60.13015625 3.80078125 60.1328125 C1 60 1 60 0 59 C-0.41629694 56.73282887 -0.80742754 54.46102435 -1.1875 52.1875 C-3.53194503 39.74652909 -9.10677506 30.94226846 -18 22 C-18.556875 21.42894531 -19.11375 20.85789062 -19.6875 20.26953125 C-20.77676505 19.16479369 -21.88513714 18.07889954 -23 17 C-20.1875 17.1875 -20.1875 17.1875 -17 18 C-15.3125 20.5625 -15.3125 20.5625 -14 23 C-13.01 23 -12.02 23 -11 23 C-11.33 20.03 -11.66 17.06 -12 14 C-11.01 14 -10.02 14 -9 14 C-9 15.65 -9 17.3 -9 19 C-8.566875 18.360625 -8.13375 17.72125 -7.6875 17.0625 C-6 15 -6 15 -3 14 C-3 12.35 -3 10.7 -3 9 C-4.32 8.34 -5.64 7.68 -7 7 C-9.31 9.31 -11.62 11.62 -14 14 C-14.66 13.01 -15.32 12.02 -16 11 C-15 9 -15 9 -13 8 C-13.33 7.01 -13.66 6.02 -14 5 C-13.34 5 -12.68 5 -12 5 C-12 5.66 -12 6.32 -12 7 C-11.484375 6.649375 -10.96875 6.29875 -10.4375 5.9375 C-7.07241727 4.64323741 -4.50464572 5.41589238 -1 6 C-0.34 5.67 0.32 5.34 1 5 C0.67 3.35 0.34 1.7 0 0 Z M-2.125 19.5 C-2.84945312 20.1496875 -3.57390625 20.799375 -4.3203125 21.46875 C-4.87460938 21.9740625 -5.42890625 22.479375 -6 23 C-5.34 23.66 -4.68 24.32 -4 25 C-1.03 22.69 1.94 20.38 5 18 C4.67 17.34 4.34 16.68 4 16 C1.05645643 16 0.02421163 17.55877659 -2.125 19.5 Z " fill="#D71011" transform="translate(132,19)"/>
<path d="M0 0 C0.845625 0.06703125 1.69125 0.1340625 2.5625 0.203125 C5.42267982 0.84483201 6.89731606 1.71819304 9 3.75 C9.8125 7.375 9.8125 7.375 10 10.75 C9 11.75 9 11.75 5.4375 11.8125 C4.303125 11.791875 3.16875 11.77125 2 11.75 C1.67 10.43 1.34 9.11 1 7.75 C-1.64 8.41 -4.28 9.07 -7 9.75 C-7 13.38 -7 17.01 -7 20.75 C-4.36 21.08 -1.72 21.41 1 21.75 C1 20.76 1 19.77 1 18.75 C3.97 18.75 6.94 18.75 10 18.75 C10.2253459 22.05507324 10.34500438 24.14213514 8.6875 27.0625 C5.74632537 30.00367463 2.64780515 29.93426879 -1.3125 30 C-5.96686447 29.9447371 -9.10739639 29.50330499 -13 26.75 C-17.06935987 22.35069203 -18.37030288 18.92337064 -18.28125 12.87890625 C-17.77923872 9.07895974 -16.25351796 6.85620043 -14 3.75 C-9.46803727 0.35102795 -5.57506448 -0.50991443 0 0 Z " fill="#020202" transform="translate(53,65.25)"/>
<path d="M0 0 C1.16917969 0.49371094 2.33835938 0.98742187 3.54296875 1.49609375 C5.09104473 2.14347098 6.63922746 2.79059299 8.1875 3.4375 C8.95642578 3.76298828 9.72535156 4.08847656 10.51757812 4.42382812 C24.55584204 10.26808392 38.58355837 8.38900516 53 5 C53.90363281 4.82339844 54.80726562 4.64679688 55.73828125 4.46484375 C58.15117147 4.01559034 58.15117147 4.01559034 61 3 C61.33 2.34 61.66 1.68 62 1 C62.66 1 63.32 1 64 1 C64 1.66 64 2.32 64 3 C65.65 3.33 67.3 3.66 69 4 C69.495 5.98 69.495 5.98 70 8 C69.01 8.33 68.02 8.66 67 9 C67 8.34 67 7.68 67 7 C65.68 7.33 64.36 7.66 63 8 C64.32 10.31 65.64 12.62 67 15 C66.34 15 65.68 15 65 15 C63.98133771 13.34467377 62.98189187 11.67739862 62 10 C61.34 9.67 60.68 9.34 60 9 C60 10.65 60 12.3 60 14 C58.35 14.33 56.7 14.66 55 15 C55.33 14.01 55.66 13.02 56 12 C56.99 12 57.98 12 59 12 C59 11.34 59 10.68 59 10 C57.35 10.66 55.7 11.32 54 12 C54 13.32 54 14.64 54 16 C56.31 16.66 58.62 17.32 61 18 C60.67 18.66 60.34 19.32 60 20 C58.68 20 57.36 20 56 20 C56 20.99 56 21.98 56 23 C55.34 23 54.68 23 54 23 C53.34 24.65 52.68 26.3 52 28 C49.36 28 46.72 28 44 28 C41.31780178 22.63560356 40.6847405 18.98993047 41 13 C40.34 13 39.68 13 39 13 C39 16.96 39 20.92 39 25 C38.67 25 38.34 25 38 25 C38 22.03 38 19.06 38 16 C37.34 16 36.68 16 36 16 C36.66 14.35 37.32 12.7 38 11 C39.65 11 41.3 11 43 11 C41.95196683 9.72441156 41.95196683 9.72441156 39.5949707 9.91821289 C38.02622192 9.94516235 38.02622192 9.94516235 36.42578125 9.97265625 C34.71165039 9.99102539 34.71165039 9.99102539 32.96289062 10.00976562 C30.548764 10.04464065 28.13469302 10.0836352 25.72070312 10.12695312 C24.57150391 10.13791016 23.42230469 10.14886719 22.23828125 10.16015625 C20.661073 10.18541382 20.661073 10.18541382 19.05200195 10.21118164 C15.75061058 9.98274363 13.08381632 9.16966375 10 8 C10 7.34 10 6.68 10 6 C5.545 5.01 5.545 5.01 1 4 C0.67 2.68 0.34 1.36 0 0 Z M42 15 C42.30893932 16.6256807 42.6222695 18.25052748 42.9375 19.875 C43.11152344 20.77992188 43.28554687 21.68484375 43.46484375 22.6171875 C43.89963701 24.99956317 43.89963701 24.99956317 45 27 C47.31 26.34 49.62 25.68 52 25 C51.67 24.34 51.34 23.68 51 23 C49.35 23.33 47.7 23.66 46 24 C46 23.01 46 22.02 46 21 C46.99 21 47.98 21 49 21 C49 20.34 49 19.68 49 19 C47.68 19 46.36 19 45 19 C45 18.01 45 17.02 45 16 C46.32 16 47.64 16 49 16 C49 15.34 49 14.68 49 14 C45.10540926 13.78918149 45.10540926 13.78918149 42 15 Z " fill="#F60405" transform="translate(50,123)"/>
<path d="M0 0 C0 0.66 0 1.32 0 2 C0.99 2 1.98 2 3 2 C3.66 4.31 4.32 6.62 5 9 C2.69 8.67 0.38 8.34 -2 8 C-2.05449838 9.72880982 -2.09301688 11.45812712 -2.125 13.1875 C-2.15980469 14.63189453 -2.15980469 14.63189453 -2.1953125 16.10546875 C-1.9913544 19.12812778 -1.26874632 21.26769985 0 24 C1.32 24 2.64 24 4 24 C4 24.66 4 25.32 4 26 C7.04913228 27.01111093 7.04913228 27.01111093 10 26 C11.76462683 29.08809695 12 30.23312136 12 34 C7.05 34 2.1 34 -3 34 C-3 33.34 -3 32.68 -3 32 C-3.5775 31.87625 -4.155 31.7525 -4.75 31.625 C-8.2441739 30.65439614 -10.348184 30.05532114 -12.3125 26.875 C-14.25737186 18.74189949 -10.55454445 9.30070855 -7 2 C-4.38816376 0.13513862 -3.24821346 0 0 0 Z " fill="#F50404" transform="translate(14,43)"/>
<path d="M0 0 C0.66 0 1.32 0 2 0 C2.12375 1.19625 2.2475 2.3925 2.375 3.625 C2.82325054 7.27596813 3.70446837 10.54524899 5 14 C7.64 14 10.28 14 13 14 C13.268125 13.360625 13.53625 12.72125 13.8125 12.0625 C15 10 15 10 18 9 C21.1875 9.9375 21.1875 9.9375 24 11 C24 11.66 24 12.32 24 13 C24.66 13 25.32 13 26 13 C26 14.32 26 15.64 26 17 C18.01498299 20.95717657 9.70035883 22.90011961 1 20 C0.175 20.474375 -0.65 20.94875 -1.5 21.4375 C-9.69872315 25.09764426 -20.50886085 23.1058926 -29 21 C-31.8828125 19.67578125 -31.8828125 19.67578125 -34 18 C-34 16.68 -34 15.36 -34 14 C-33.01 14.33 -32.02 14.66 -31 15 C-31 15.66 -31 16.32 -31 17 C-27.84740535 18.01333399 -26.15492577 17.81126663 -23 17 C-21.25309081 16.7856066 -19.5025977 16.59892347 -17.75 16.4375 C-16.85796875 16.35371094 -15.9659375 16.26992187 -15.046875 16.18359375 C-14.37140625 16.12300781 -13.6959375 16.06242187 -13 16 C-12.67 14.68 -12.34 13.36 -12 12 C-12 13.65 -12 15.3 -12 17 C-10.14375 16.7525 -10.14375 16.7525 -8.25 16.5 C-5.42179168 16.12290556 -2.88435938 16 0 16 C0 10.72 0 5.44 0 0 Z " fill="#F70304" transform="translate(89,136)"/>
<path d="M0 0 C4.00774233 -1.09717661 7.02531326 -1.31652077 11 0 C14.90508417 3.91457899 17.35826086 9.11616989 19.91162109 13.96484375 C21.36270257 16.67821638 22.98916008 19.26991535 24.625 21.875 C27 25.74585635 27 25.74585635 27 28 C22.99225767 29.09717661 19.97468674 29.31652077 16 28 C12.09491583 24.08542101 9.64173914 18.88383011 7.08837891 14.03515625 C5.63729743 11.32178362 4.01083992 8.73008465 2.375 6.125 C0 2.25414365 0 2.25414365 0 0 Z " fill="#020202" transform="translate(73,34)"/>
<path d="M0 0 C2.33524782 2.25740623 4.18705073 4.2805761 6 7 C5.56765015 14.26759506 1.85468416 20.73948262 -3 26 C-6.88526809 27.09623706 -10.0804944 26.8429819 -14 26 C-12.40193652 19.91117584 -9.1388717 14.9335245 -5.875 9.625 C-5.31167969 8.69816406 -4.74835938 7.77132812 -4.16796875 6.81640625 C-2.78393957 4.54096845 -1.39451078 2.2690237 0 0 Z " fill="#020202" transform="translate(71,36)"/>
<path d="M0 0 C2.64 0 5.28 0 8 0 C6.03617993 1.50559539 4.21736634 2.89131683 2 4 C3.20842856 8.43090471 4.51668565 10.98112756 8 14 C8.66 13.67 9.32 13.34 10 13 C9.67 14.32 9.34 15.64 9 17 C7.68 16.67 6.36 16.34 5 16 C4.67 17.65 4.34 19.3 4 21 C4.66 21 5.32 21 6 21 C6.4975766 23.7366713 6.38908889 25.43035351 4.8046875 27.75 C2.02993159 30.98489131 -0.92789142 34.04604944 -4 37 C-2.55049545 33.2089881 -0.84827434 29.6125362 1 26 C1.99 26 2.98 26 4 26 C3.34 25.01 2.68 24.02 2 23 C1.01 23.33 0.02 23.66 -1 24 C-1.66 23.67 -2.32 23.34 -3 23 C-3.0825 23.7425 -3.165 24.485 -3.25 25.25 C-4.14809799 28.54302595 -5.38416074 29.85976788 -8 32 C-8.66 32 -9.32 32 -10 32 C-10 33.98 -10 35.96 -10 38 C-12 37 -12 37 -12.75 35.125 C-13 33 -13 33 -11 30 C-9.68 30 -8.36 30 -7 30 C-7 29.34 -7 28.68 -7 28 C-9.97 27.67 -12.94 27.34 -16 27 C-16 26.67 -16 26.34 -16 26 C-12.535 25.505 -12.535 25.505 -9 25 C-9.99 24.01 -10.98 23.02 -12 22 C-11.67 21.34 -11.34 20.68 -11 20 C-8.69 21.98 -6.38 23.96 -4 26 C-5.65 23.69 -7.3 21.38 -9 19 C-6.69 19.66 -4.38 20.32 -2 21 C-2.66 18.69 -3.32 16.38 -4 14 C-0.535 15.98 -0.535 15.98 3 18 C2.21625 17.236875 1.4325 16.47375 0.625 15.6875 C-2 13 -2 13 -4 10 C-2.68 10.66 -1.36 11.32 0 12 C0.06978435 9.48776344 0.0831468 7.31411014 -0.5625 4.875 C-1 3 -1 3 0 0 Z " fill="#D8120F" transform="translate(38,17)"/>
<path d="M0 0 C0.33 1.32 0.66 2.64 1 4 C2.32 3.67 3.64 3.34 5 3 C4.34 5.97 3.68 8.94 3 12 C1.68 12 0.36 12 -1 12 C-1 11.01 -1 10.02 -1 9 C-1.66 9 -2.32 9 -3 9 C-3.309375 9.804375 -3.61875 10.60875 -3.9375 11.4375 C-5 14 -5 14 -6 15 C-8.01964199 15.07244053 -10.04167124 15.08377188 -12.0625 15.0625 C-13.16722656 15.05347656 -14.27195313 15.04445313 -15.41015625 15.03515625 C-16.69212891 15.01775391 -16.69212891 15.01775391 -18 15 C-18.17835515 10.45194365 -17.99785435 7.1205746 -16 3 C-15.34 3 -14.68 3 -14 3 C-13.67 3.99 -13.34 4.98 -13 6 C-10.84188612 5.05270463 -10.84188612 5.05270463 -9 3 C-8.01 3 -7.02 3 -6 3 C-6 2.34 -6 1.68 -6 1 C-4.7934375 1.0309375 -4.7934375 1.0309375 -3.5625 1.0625 C-1.06645115 1.29633621 -1.06645115 1.29633621 0 0 Z " fill="#F90202" transform="translate(151,62)"/>
<path d="M0 0 C2.91517292 1.07401108 4.77810176 1.77810176 7 4 C7 4.99 7 5.98 7 7 C7.66 7 8.32 7 9 7 C9.33 6.34 9.66 5.68 10 5 C11.65 5.33 13.3 5.66 15 6 C15 6.66 15 7.32 15 8 C18.04913228 9.01111093 18.04913228 9.01111093 21 8 C22.76462683 11.08809695 23 12.23312136 23 16 C18.05 16 13.1 16 8 16 C8 15.34 8 14.68 8 14 C7.1028125 13.8453125 7.1028125 13.8453125 6.1875 13.6875 C3.68196685 12.90004672 2.67240757 11.99096139 1 10 C-0.60725635 6.78548731 -0.05748185 3.56387464 0 0 Z " fill="#F90403" transform="translate(3,61)"/>
<path d="M0 0 C2.97 0 5.94 0 9 0 C9 1.98 9 3.96 9 6 C7.35 6.33 5.7 6.66 4 7 C3.67 6.01 3.34 5.02 3 4 C4.65 3.67 6.3 3.34 8 3 C7.67 2.67 7.34 2.34 7 2 C5.02 2 3.04 2 1 2 C1.33 5.96 1.66 9.92 2 14 C4.64 14 7.28 14 10 14 C10 14.66 10 15.32 10 16 C7.36 16 4.72 16 2 16 C1.67 16.99 1.34 17.98 1 19 C9.25 19.33 17.5 19.66 26 20 C25.67 20.66 25.34 21.32 25 22 C24.1478894 21.97643433 24.1478894 21.97643433 23.27856445 21.95239258 C12.07782929 21.68406404 1.79288462 21.63598401 -9 25 C-9 24.01 -9 23.02 -9 22 C-6.09399739 20.74335022 -4.20395416 20 -1 20 C-3.73905345 18.63047327 -5.97087332 18.87378639 -9 19 C-9.66 19.33 -10.32 19.66 -11 20 C-11 18.02 -11 16.04 -11 14 C-10.67 14.99 -10.34 15.98 -10 17 C-7.36 16.34 -4.72 15.68 -2 15 C-2 13.35 -2 11.7 -2 10 C-2.66 10 -3.32 10 -4 10 C-4 6 -4 6 -2.5625 4.4375 C-2.046875 3.963125 -1.53125 3.48875 -1 3 C-0.67 2.01 -0.34 1.02 0 0 Z " fill="#E01213" transform="translate(68,7)"/>
<path d="M0 0 C0.66 0.33 1.32 0.66 2 1 C2 1.99 2 2.98 2 4 C2.95211112 6.02323613 3.94773272 8.02699884 5 10 C4.34 10 3.68 10 3 10 C1.98133771 8.34467377 0.98189187 6.67739862 0 5 C-0.66 4.67 -1.32 4.34 -2 4 C-2 5.65 -2 7.3 -2 9 C-3.65 9.33 -5.3 9.66 -7 10 C-6.67 9.01 -6.34 8.02 -6 7 C-5.01 7 -4.02 7 -3 7 C-3 6.34 -3 5.68 -3 5 C-4.65 5.66 -6.3 6.32 -8 7 C-8 8.32 -8 9.64 -8 11 C-5.69 11.66 -3.38 12.32 -1 13 C-1.33 13.66 -1.66 14.32 -2 15 C-3.32 15 -4.64 15 -6 15 C-6 15.99 -6 16.98 -6 18 C-6.66 18 -7.32 18 -8 18 C-8.99 20.475 -8.99 20.475 -10 23 C-16.15234375 23.09765625 -16.15234375 23.09765625 -18 23 C-19 22 -19 22 -19.0625 19.4375 C-19.041875 18.633125 -19.02125 17.82875 -19 17 C-17 20 -17 20 -17 22 C-15.02 21.34 -13.04 20.68 -11 20 C-11 19.67 -11 19.34 -11 19 C-12.65 19 -14.3 19 -16 19 C-16 18.01 -16 17.02 -16 16 C-15.01 16 -14.02 16 -13 16 C-13 15.34 -13 14.68 -13 14 C-14.32 14 -15.64 14 -17 14 C-17 13.01 -17 12.02 -17 11 C-16.360625 11.185625 -15.72125 11.37125 -15.0625 11.5625 C-14.0415625 11.7790625 -14.0415625 11.7790625 -13 12 C-11.53755466 10.53755466 -11.42285346 8.99345203 -11 7 C-11 6.34 -11 5.68 -11 5 C-8.24433749 2.24433749 -5.78460367 2.54065767 -2 2 C-1.34 1.34 -0.68 0.68 0 0 Z " fill="#F2070C" transform="translate(112,128)"/>
<path d="M0 0 C1.65 0.33 3.3 0.66 5 1 C4.67 2.65 4.34 4.3 4 6 C6.64 5.67 9.28 5.34 12 5 C11.67 7.31 11.34 9.62 11 12 C12.98 11.67 14.96 11.34 17 11 C17.125 13.375 17.125 13.375 17 16 C16.34 16.66 15.68 17.32 15 18 C14.01 18 13.02 18 12 18 C12 17.34 12 16.68 12 16 C10.948125 15.938125 9.89625 15.87625 8.8125 15.8125 C3.61822038 14.70552238 1.50569106 12.25853659 -1.375 7.9375 C-2.37500719 4.83747772 -1.40861705 2.81723409 0 0 Z " fill="#F30606" transform="translate(21,125)"/>
<path d="M0 0 C1.66611905 -0.042721 3.33382885 -0.04063832 5 0 C6 1 6 1 6.0625 3.5625 C6.041875 4.366875 6.02125 5.17125 6 6 C4.35 6.33 2.7 6.66 1 7 C0.67 8.32 0.34 9.64 0 11 C0.99 11.33 1.98 11.66 3 12 C3.33333333 13.33333333 3.66666667 14.66666667 4 16 C4.99 16.33 5.98 16.66 7 17 C7 17.33 7 17.66 7 18 C4.36 18 1.72 18 -1 18 C-1 17.34 -1 16.68 -1 16 C-3.97 15.67 -6.94 15.34 -10 15 C-9.07406511 11.29626045 -8.26497298 9.01996398 -6 6 C-4.68 6 -3.36 6 -2 6 C-1.34 4.02 -0.68 2.04 0 0 Z " fill="#F90303" transform="translate(23,25)"/>
<path d="M0 0 C1.98 0.66 3.96 1.32 6 2 C6 3.65 6 5.3 6 7 C7.32 7.33 8.64 7.66 10 8 C10 9.65 10 11.3 10 13 C9.01 13.495 9.01 13.495 8 14 C7.30906104 16.57951874 7.30906104 16.57951874 6.875 19.5625 C6.70742187 20.57441406 6.53984375 21.58632812 6.3671875 22.62890625 C6.24601563 23.41136719 6.12484375 24.19382812 6 25 C7.93822596 24.96694498 9.87585668 24.89750095 11.8125 24.8125 C12.89144531 24.77769531 13.97039062 24.74289063 15.08203125 24.70703125 C18.21776623 24.29007334 18.21776623 24.29007334 19.76171875 21.44921875 C20.17035156 20.64097656 20.57898438 19.83273438 21 19 C21.66 19 22.32 19 23 19 C23 19.99 23 20.98 23 22 C24.32 22.33 25.64 22.66 27 23 C22.18737729 26.9532258 18.47216147 27.13879543 12.3125 27.125 C11.15363281 27.12757812 9.99476563 27.13015625 8.80078125 27.1328125 C6 27 6 27 5 26 C3.42912902 19.78107244 2.60325885 14.28533518 4 8 C3.34 8 2.68 8 2 8 C2 6.35 2 4.7 2 3 C1.34 3 0.68 3 0 3 C0 2.01 0 1.02 0 0 Z " fill="#F70405" transform="translate(127,52)"/>
<path d="M0 0 C0.33 0 0.66 0 1 0 C1.620954 23.06729131 1.620954 23.06729131 -2 33 C-2.66 33.66 -3.32 34.32 -4 35 C-4 32.69 -4 30.38 -4 28 C-3.34 28 -2.68 28 -2 28 C-2 27.43490723 -2 26.86981445 -2 26.28759766 C-2 19.85839844 -2 13.42919922 -2 7 C-2.63292969 7.64453125 -3.26585937 8.2890625 -3.91796875 8.953125 C-8.0763421 11.71483303 -11.42533557 11.66514 -16.3125 11.75 C-17.14845703 11.77964844 -17.98441406 11.80929688 -18.84570312 11.83984375 C-20.89662485 11.91016107 -22.94831562 11.95738973 -25 12 C-25.33 13.32 -25.66 14.64 -26 16 C-26.66 15.67 -27.32 15.34 -28 15 C-27.67 13.02 -27.34 11.04 -27 9 C-25.9378125 8.97421875 -24.875625 8.9484375 -23.78125 8.921875 C-12.80655088 8.58607618 -12.80655088 8.58607618 -3 4 C-1.09667779 1.91444964 -1.09667779 1.91444964 0 0 Z " fill="#D11516" transform="translate(159,72)"/>
<path d="M0 0 C1.32 0.33 2.64 0.66 4 1 C4 2.32 4 3.64 4 5 C4.99 5.33 5.98 5.66 7 6 C6.67 6.66 6.34 7.32 6 8 C5.34 7.67 4.68 7.34 4 7 C4 8.98 4 10.96 4 13 C5.32 13.33 6.64 13.66 8 14 C8 16.31 8 18.62 8 21 C7.01 21.33 6.02 21.66 5 22 C2 18.25 2 18.25 2 16 C1.071875 15.95875 0.14375 15.9175 -0.8125 15.875 C-4 15 -4 15 -5.875 11.9375 C-6.24625 10.968125 -6.6175 9.99875 -7 9 C-6 8 -6 8 -3.4375 7.9375 C-2.2309375 7.9684375 -2.2309375 7.9684375 -1 8 C-1 7.01 -1 6.02 -1 5 C-0.01 5 0.98 5 2 5 C1.34 3.35 0.68 1.7 0 0 Z " fill="#F50505" transform="translate(113,21)"/>
<path d="M0 0 C2.17651404 4.35302807 2.63412957 6.22868635 2 11 C0.40645414 13.46824814 -1.58574975 15.34202564 -3.75 17.3125 C-4.28882813 17.83650391 -4.82765625 18.36050781 -5.3828125 18.90039062 C-8.0564324 21.44685056 -10.55089022 23.61868176 -14 25 C-13.67 23.68 -13.34 22.36 -13 21 C-12.01 21 -11.02 21 -10 21 C-10.99 20.34 -11.98 19.68 -13 19 C-13 18.34 -13 17.68 -13 17 C-14.32 17 -15.64 17 -17 17 C-17 16.34 -17 15.68 -17 15 C-16.34 15 -15.68 15 -15 15 C-15.0309375 13.7934375 -15.0309375 13.7934375 -15.0625 12.5625 C-15 10 -15 10 -14 9 C-12.33382885 8.95936168 -10.66611905 8.957279 -9 9 C-9 8.34 -9 7.68 -9 7 C-10.32 6.34 -11.64 5.68 -13 5 C-11.35 5.33 -9.7 5.66 -8 6 C-8 7.32 -8 8.64 -8 10 C-9 11 -9 11 -11.5625 11.0625 C-12.366875 11.041875 -13.17125 11.02125 -14 11 C-13.67 11.66 -13.34 12.32 -13 13 C-9.82492476 13.19695965 -9.82492476 13.19695965 -6.5 11.5 C-3 10 -3 10 0 10 C0 6.7 0 3.4 0 0 Z " fill="#E20D0E" transform="translate(141,120)"/>
<path d="M0 0 C0.33 0 0.66 0 1 0 C1.33 3.63 1.66 7.26 2 11 C2.99 11 3.98 11 5 11 C4.979375 9.865625 4.95875 8.73125 4.9375 7.5625 C5 4 5 4 6 3 C7.99958364 2.95919217 10.00045254 2.95745644 12 3 C12 3.33 12 3.66 12 4 C10.35 4.33 8.7 4.66 7 5 C7.2475 6.3921875 7.2475 6.3921875 7.5 7.8125 C8 11 8 11 8 14 C6.68 14 5.36 14 4 14 C5.98 14.66 7.96 15.32 10 16 C10 16.33 10 16.66 10 17 C8.35 17.33 6.7 17.66 5 18 C5.66 19.98 6.32 21.96 7 24 C5.94232422 23.57074219 5.94232422 23.57074219 4.86328125 23.1328125 C1.98794768 21.99523169 -0.90452186 20.92607644 -3.8125 19.875 C-4.78832031 19.52179687 -5.76414062 19.16859375 -6.76953125 18.8046875 C-7.50558594 18.53914063 -8.24164063 18.27359375 -9 18 C-9 17.67 -9 17.34 -9 17 C-7.02 17 -5.04 17 -3 17 C-3 14.69 -3 12.38 -3 10 C-4.32 10 -5.64 10 -7 10 C-7 9.34 -7 8.68 -7 8 C-5.35 8.33 -3.7 8.66 -2 9 C-2 9.99 -2 10.98 -2 12 C-1.34 12 -0.68 12 0 12 C0 8.04 0 4.08 0 0 Z " fill="#E10F0E" transform="translate(102,12)"/>
<path d="M0 0 C7.41312741 -0.37065637 7.41312741 -0.37065637 10.375 1.5 C10.91125 1.995 11.4475 2.49 12 3 C12.66 3 13.32 3 14 3 C14.33 6.96 14.66 10.92 15 15 C15.66 15 16.32 15 17 15 C16.67 12.69 16.34 10.38 16 8 C19.69418201 9.231394 21.35109746 11.20791354 24 14 C24.66 13.01 25.32 12.02 26 11 C25.67 12.65 25.34 14.3 25 16 C19.66666667 16 14.33333333 16 9 16 C7.2675 16.0928125 7.2675 16.0928125 5.5 16.1875 C1.81547005 15.99011447 0.60547974 15.50126055 -2 13 C-1.67 12.34 -1.34 11.68 -1 11 C-0.34 11.66 0.32 12.32 1 13 C4 13.33333333 4 13.33333333 7 13 C9.41121859 11.04366025 9.41121859 11.04366025 9.125 7.375 C9.08375 6.26125 9.0425 5.1475 9 4 C4.60746227 2.43727811 4.60746227 2.43727811 0 2 C0 1.34 0 0.68 0 0 Z " fill="#D90E0F" transform="translate(64,137)"/>
<path d="M0 0 C0.66 1.32 1.32 2.64 2 4 C1.01 4.66 0.02 5.32 -1 6 C-3.28095986 9.16588074 -5 12.01601747 -5 16 C-6.32 16 -7.64 16 -9 16 C-9 17.32 -9 18.64 -9 20 C-9.66 20 -10.32 20 -11 20 C-11.33 21.65 -11.66 23.3 -12 25 C-13.64826111 22.03312999 -14.44271087 19.34373475 -15 16 C-14.01 16 -13.02 16 -12 16 C-12 14.02 -12 12.04 -12 10 C-11.071875 9.87625 -11.071875 9.87625 -10.125 9.75 C-7.86527098 9.19396046 -7.86527098 9.19396046 -6.8125 7.1875 C-6.05060061 5.13623242 -5.45824008 3.13845369 -5 1 C-3.35 0.67 -1.7 0.34 0 0 Z " fill="#F60504" transform="translate(40,39)"/>
<path d="M0 0 C0.99 0.33 1.98 0.66 3 1 C4.1875 3.5625 4.1875 3.5625 5 6 C7.31 6.33 9.62 6.66 12 7 C11.01 8.485 11.01 8.485 10 10 C8.68 9.34 7.36 8.68 6 8 C5.34 9.98 4.68 11.96 4 14 C6.16666667 13.16666667 6.16666667 13.16666667 7 11 C8.32 11.99 9.64 12.98 11 14 C11.66 13.01 12.32 12.02 13 11 C13 11.66 13 12.32 13 13 C14.32 13.33 15.64 13.66 17 14 C15.37829621 15.00533667 13.75252763 16.00411907 12.125 17 C11.22007813 17.556875 10.31515625 18.11375 9.3828125 18.6875 C7 20 7 20 5 20 C5 19.01 5 18.02 5 17 C4.34 17 3.68 17 3 17 C3 16.34 3 15.68 3 15 C1.35 15 -0.3 15 -2 15 C-1.360625 14.4225 -0.72125 13.845 -0.0625 13.25 C1.98223868 11.01937599 2.58205199 9.92563609 3 7 C0.69 6.67 -1.62 6.34 -4 6 C-2.68 5.67 -1.36 5.34 0 5 C0 3.35 0 1.7 0 0 Z " fill="#E20F0D" transform="translate(110,132)"/>
<path d="M0 0 C0 0.33 0 0.66 0 1 C-4.455 1.495 -4.455 1.495 -9 2 C-9.33 1.01 -9.66 0.02 -10 -1 C-11.423125 -0.2265625 -11.423125 -0.2265625 -12.875 0.5625 C-13.90625 1.036875 -14.9375 1.51125 -16 2 C-16.66 1.67 -17.32 1.34 -18 1 C-18.33 1.99 -18.66 2.98 -19 4 C-18.34 4 -17.68 4 -17 4 C-17.33 4.66 -17.66 5.32 -18 6 C-20.97 5.01 -23.94 4.02 -27 3 C-27 2.34 -27 1.68 -27 1 C-26.01 0.67 -25.02 0.34 -24 0 C-23.67 -0.66 -23.34 -1.32 -23 -2 C-23.61875 -1.79375 -24.2375 -1.5875 -24.875 -1.375 C-25.57625 -1.25125 -26.2775 -1.1275 -27 -1 C-27.66 -1.66 -28.32 -2.32 -29 -3 C-18.59505598 -4.43898162 -9.83317212 -3.77650813 0 0 Z " fill="#EF0707" transform="translate(107,4)"/>
<path d="M0 0 C1.32 0 2.64 0 4 0 C4.33 0.66 4.66 1.32 5 2 C5.99 2.33 6.98 2.66 8 3 C8.2475 3.66 8.495 4.32 8.75 5 C9.36875 5.99 9.36875 5.99 10 7 C13.56206661 7.81870185 13.56206661 7.81870185 17 8 C17 8.66 17 9.32 17 10 C15.35 9.67 13.7 9.34 12 9 C10.68 11.64 9.36 14.28 8 17 C7.34 16.01 6.68 15.02 6 14 C4.68 14.33 3.36 14.66 2 15 C3.65 12.03 5.3 9.06 7 6 C4.03 8.475 4.03 8.475 1 11 C1.33 7.7 1.66 4.4 2 1 C1.34 0.67 0.68 0.34 0 0 Z " fill="#DB0D0E" transform="translate(40,125)"/>
<path d="M0 0 C2 2 2 2 2 5 C3.98 5 5.96 5 8 5 C7.505 5.37125 7.01 5.7425 6.5 6.125 C4.40244486 8.74694393 4.78256165 10.73842472 5 14 C4.278125 13.62875 3.55625 13.2575 2.8125 12.875 C-0.60988311 11.81025859 -1.88228073 12.39660152 -5 14 C-4.34 12.02 -3.68 10.04 -3 8 C-4.32 7.34 -5.64 6.68 -7 6 C-7 5.67 -7 5.34 -7 5 C-5.824375 4.87625 -5.824375 4.87625 -4.625 4.75 C-1.85250896 4.27193661 -1.85250896 4.27193661 -0.6875 1.9375 C-0.460625 1.298125 -0.23375 0.65875 0 0 Z " fill="#010101" transform="translate(78,108)"/>
<path d="M0 0 C2.8125 0.1875 2.8125 0.1875 6 1 C7.875 3.5625 7.875 3.5625 9 6 C12.465 5.505 12.465 5.505 16 5 C16.33 6.32 16.66 7.64 17 9 C17.99 9 18.98 9 20 9 C20 10.65 20 12.3 20 14 C16.98968256 14.93423645 16.13349732 15.04449911 13 14 C11.38671875 12.328125 11.38671875 12.328125 9.6875 10.25 C6.70358088 6.7137384 3.59546891 3.893914 0 1 C0 0.67 0 0.34 0 0 Z " fill="#EA0B0B" transform="translate(109,36)"/>
<path d="M0 0 C2.375 0.375 2.375 0.375 5 1 C8.89459074 1.21081851 8.89459074 1.21081851 12 0 C13 1 13 1 13.0625 4.5625 C13.041875 5.696875 13.02125 6.83125 13 8 C12.01 8 11.02 8 10 8 C9.67 7.34 9.34 6.68 9 6 C8.67 6.66 8.34 7.32 8 8 C6.68 8 5.36 8 4 8 C3.113125 8.020625 2.22625 8.04125 1.3125 8.0625 C-1 8 -1 8 -2 7 C-2.1875 4.5625 -2.1875 4.5625 -2 2 C-1.34 1.34 -0.68 0.68 0 0 Z M1 2 C1 3.32 1 4.64 1 6 C1.66 6 2.32 6 3 6 C2.67 4.68 2.34 3.36 2 2 C1.67 2 1.34 2 1 2 Z " fill="#010101" transform="translate(71,98)"/>
<path d="M0 0 C1.98 1.32 3.96 2.64 6 4 C5.01 4.495 5.01 4.495 4 5 C3.67 5.99 3.34 6.98 3 8 C2.01 8.495 2.01 8.495 1 9 C0.87625 9.763125 0.7525 10.52625 0.625 11.3125 C-0.14546488 14.62549899 -1.3985198 15.8715162 -4 18 C-4.66 18 -5.32 18 -6 18 C-6 19.98 -6 21.96 -6 24 C-8 23 -8 23 -8.75 21.125 C-9 19 -9 19 -7 16 C-5.68 16 -4.36 16 -3 16 C-3 15.34 -3 14.68 -3 14 C-5.97 13.67 -8.94 13.34 -12 13 C-12 12.67 -12 12.34 -12 12 C-8.535 11.505 -8.535 11.505 -5 11 C-5.99 10.01 -6.98 9.02 -8 8 C-7.67 7.34 -7.34 6.68 -7 6 C-4.69 7.98 -2.38 9.96 0 12 C-1.65 9.69 -3.3 7.38 -5 5 C-2.69 5.66 -0.38 6.32 2 7 C1.34 4.69 0.68 2.38 0 0 Z " fill="#CC1414" transform="translate(34,31)"/>
<path d="M0 0 C2 3.75 2 3.75 2 6 C3.32 6.33 4.64 6.66 6 7 C2.7 9.64 -0.6 12.28 -4 15 C-4.33 14.34 -4.66 13.68 -5 13 C-6.32 13 -7.64 13 -9 13 C-9.33 10.36 -9.66 7.72 -10 5 C-9.01 5 -8.02 5 -7 5 C-7 6.65 -7 8.3 -7 10 C-6.566875 9.360625 -6.13375 8.72125 -5.6875 8.0625 C-4 6 -4 6 -1 5 C-0.67 3.35 -0.34 1.7 0 0 Z " fill="#DA0F10" transform="translate(130,28)"/>
<path d="M0 0 C0.33 0.66 0.66 1.32 1 2 C1.99 2.33 2.98 2.66 4 3 C3.60167969 3.4125 3.20335938 3.825 2.79296875 4.25 C-0.63788031 7.98970896 -2.8199142 11.26011455 -4.359375 16.10546875 C-5.06173637 18.18257403 -5.98450445 20.0593708 -7 22 C-7.98635837 20.58833114 -8.96381255 19.17043816 -9.9375 17.75 C-10.48277344 16.96109375 -11.02804688 16.1721875 -11.58984375 15.359375 C-12.89622441 13.17363007 -13.54980511 11.4846199 -14 9 C-13.34 9 -12.68 9 -12 9 C-12 9.99 -12 10.98 -12 12 C-11.34 12 -10.68 12 -10 12 C-10 12.99 -10 13.98 -10 15 C-8.68 14.67 -7.36 14.34 -6 14 C-6 12.68 -6 11.36 -6 10 C-5.34 10 -4.68 10 -4 10 C-4.33 9.01 -4.66 8.02 -5 7 C-4.34 6.34 -3.68 5.68 -3 5 C-2.01 5 -1.02 5 0 5 C0 3.35 0 1.7 0 0 Z " fill="#D61013" transform="translate(21,104)"/>
<path d="M0 0 C0.99 0.33 1.98 0.66 3 1 C2.53851563 1.99257813 2.07703125 2.98515625 1.6015625 4.0078125 C-0.06486031 7.89482694 -0.90298455 11.72341117 -1.625 15.875 C-2.88197674 22.88197674 -2.88197674 22.88197674 -4 24 C-11.20236722 24.54278709 -17.69843378 24.78093973 -24 21 C-24.66 20.01 -25.32 19.02 -26 18 C-24.02 18.66 -22.04 19.32 -20 20 C-20 20.66 -20 21.32 -20 22 C-14.72 22 -9.44 22 -4 22 C-3.7834375 19.7725 -3.7834375 19.7725 -3.5625 17.5 C-3.11268827 12.98903092 -2.58276076 8.49558297 -2 4 C-1.34 4 -0.68 4 0 4 C0 2.68 0 1.36 0 0 Z " fill="#C41114" transform="translate(31,55)"/>
<path d="M0 0 C0 0.66 0 1.32 0 2 C0.99 2 1.98 2 3 2 C3.66 4.31 4.32 6.62 5 9 C3.948125 8.979375 2.89625 8.95875 1.8125 8.9375 C-1.32704904 8.98896802 -3.96883396 9.26517187 -7 10 C-7.19990835 6.40164967 -6.96808719 4.06146896 -5 1 C-3 0 -3 0 0 0 Z " fill="#F80303" transform="translate(14,43)"/>
<path d="M0 0 C1.16917969 0.49371094 2.33835938 0.98742187 3.54296875 1.49609375 C5.09104473 2.14347098 6.63922746 2.79059299 8.1875 3.4375 C8.95642578 3.76298828 9.72535156 4.08847656 10.51757812 4.42382812 C11.26845703 4.73642578 12.01933594 5.04902344 12.79296875 5.37109375 C13.4789917 5.65911865 14.16501465 5.94714355 14.87182617 6.24389648 C18.87109723 7.66476863 22.63591953 8.12492955 26.86328125 8.09765625 C27.74951172 8.09443359 28.63574219 8.09121094 29.54882812 8.08789062 C30.46083984 8.07951172 31.37285156 8.07113281 32.3125 8.0625 C33.24384766 8.05798828 34.17519531 8.05347656 35.13476562 8.04882812 C37.42324373 8.03709234 39.71158808 8.02067363 42 8 C42 8.66 42 9.32 42 10 C37.79172527 10.05828635 33.58355511 10.093693 29.375 10.125 C27.59029297 10.15013672 27.59029297 10.15013672 25.76953125 10.17578125 C24.61582031 10.18222656 23.46210937 10.18867188 22.2734375 10.1953125 C20.68668213 10.21102295 20.68668213 10.21102295 19.06787109 10.22705078 C15.76636112 9.98270857 13.08587237 9.16882977 10 8 C10 7.34 10 6.68 10 6 C5.545 5.01 5.545 5.01 1 4 C0.67 2.68 0.34 1.36 0 0 Z " fill="#CD1313" transform="translate(50,123)"/>
<path d="M0 0 C3.3 0 6.6 0 10 0 C10 1.32 10 2.64 10 4 C12.475 4.99 12.475 4.99 15 6 C15 6.66 15 7.32 15 8 C15.99 7.67 16.98 7.34 18 7 C19 8 19 8 19.0625 11.0625 C19.041875 12.031875 19.02125 13.00125 19 14 C17.29115995 12.37660195 15.62553283 10.70680947 14 9 C14 8.34 14 7.68 14 7 C12.35 7 10.7 7 9 7 C8.67 7.66 8.34 8.32 8 9 C7.5875 8.38125 7.175 7.7625 6.75 7.125 C5.15864784 4.89952304 5.15864784 4.89952304 2.875 3.9375 C2.25625 3.628125 1.6375 3.31875 1 3 C0.67 2.01 0.34 1.02 0 0 Z " fill="#F70505" transform="translate(67,133)"/>
<path d="M0 0 C0.66 0.33 1.32 0.66 2 1 C2 1.99 2 2.98 2 4 C2.95211112 6.02323613 3.94773272 8.02699884 5 10 C4.34 10 3.68 10 3 10 C1.98133771 8.34467377 0.98189187 6.67739862 0 5 C-0.66 4.67 -1.32 4.34 -2 4 C-2 5.65 -2 7.3 -2 9 C-3.65 9.33 -5.3 9.66 -7 10 C-6.67 9.01 -6.34 8.02 -6 7 C-5.01 7 -4.02 7 -3 7 C-3 6.34 -3 5.68 -3 5 C-4.65 5.66 -6.3 6.32 -8 7 C-8 8.32 -8 9.64 -8 11 C-5.69 11.66 -3.38 12.32 -1 13 C-1.33 13.66 -1.66 14.32 -2 15 C-4.66666667 14.33333333 -7.33333333 13.66666667 -10 13 C-10.9765625 6.9453125 -10.9765625 6.9453125 -11 5 C-8.24433749 2.24433749 -5.78460367 2.54065767 -2 2 C-1.34 1.34 -0.68 0.68 0 0 Z " fill="#CB1413" transform="translate(112,128)"/>
<path d="M0 0 C0.66 0.66 1.32 1.32 2 2 C4.06874034 2.6425235 4.06874034 2.6425235 6 3 C6 4.65 6 6.3 6 8 C5.01 8 4.02 8 3 8 C2.67 8.99 2.34 9.98 2 11 C1.34 11 0.68 11 0 11 C-0.639375 11.165 -1.27875 11.33 -1.9375 11.5 C-4 12 -4 12 -7 12 C-7.33 11.01 -7.66 10.02 -8 9 C-6.02 8.34 -4.04 7.68 -2 7 C-2.33 5.02 -2.66 3.04 -3 1 C-2.01 1.33 -1.02 1.66 0 2 C0 1.34 0 0.68 0 0 Z " fill="#FA0304" transform="translate(135,122)"/>
<path d="M0 0 C0.99 0.495 0.99 0.495 2 1 C2 3.64 2 6.28 2 9 C3.93822596 8.96694498 5.87585668 8.89750095 7.8125 8.8125 C8.89144531 8.77769531 9.97039062 8.74289063 11.08203125 8.70703125 C14.21776623 8.29007334 14.21776623 8.29007334 15.76171875 5.44921875 C16.17035156 4.64097656 16.57898438 3.83273438 17 3 C17.66 3 18.32 3 19 3 C19 3.99 19 4.98 19 6 C20.32 6.33 21.64 6.66 23 7 C18.18737729 10.9532258 14.47216147 11.13879543 8.3125 11.125 C7.15363281 11.12757812 5.99476563 11.13015625 4.80078125 11.1328125 C2 11 2 11 1 10 C0.76712992 8.31816052 0.58735834 6.6287584 0.4375 4.9375 C0.35371094 4.01839844 0.26992187 3.09929687 0.18359375 2.15234375 C0.09271484 1.08693359 0.09271484 1.08693359 0 0 Z " fill="#D30F11" transform="translate(131,68)"/>
<path d="M0 0 C0.33 0 0.66 0 1 0 C1.620954 23.06729131 1.620954 23.06729131 -2 33 C-2.66 33.66 -3.32 34.32 -4 35 C-4 32.69 -4 30.38 -4 28 C-3.34 28 -2.68 28 -2 28 C-2.00523682 27.42967041 -2.01047363 26.85934082 -2.01586914 26.27172852 C-2.03658221 23.70199677 -2.0496419 21.13228253 -2.0625 18.5625 C-2.07087891 17.66466797 -2.07925781 16.76683594 -2.08789062 15.84179688 C-2.09111328 14.98779297 -2.09433594 14.13378906 -2.09765625 13.25390625 C-2.10551147 12.06776733 -2.10551147 12.06776733 -2.11352539 10.85766602 C-2 9 -2 9 -1 8 C-0.76924918 6.65252916 -0.58846937 5.29622435 -0.4375 3.9375 C-0.2209375 1.9884375 -0.2209375 1.9884375 0 0 Z " fill="#F21712" transform="translate(159,72)"/>
<path d="M0 0 C4.36001681 3.10217125 6.90782434 6.41425984 9.6875 10.875 C10.07744141 11.47441406 10.46738281 12.07382812 10.86914062 12.69140625 C13.18870723 16.34720182 14.79972705 19.80225395 16 24 C15.01 23.67 14.02 23.34 13 23 C11.5522078 20.10441559 11 18.25811062 11 15 C9.576875 14.62875 9.576875 14.62875 8.125 14.25 C5 13 5 13 3.625 10.875 C3.41875 10.25625 3.2125 9.6375 3 9 C3.66 9 4.32 9 5 9 C5 8.34 5 7.68 5 7 C4.34 7 3.68 7 3 7 C3 6.01 3 5.02 3 4 C1.68 3.67 0.36 3.34 -1 3 C-0.67 2.01 -0.34 1.02 0 0 Z " fill="#DF1111" transform="translate(138,25)"/>
<path d="M0 0 C0.93423645 3.01031744 1.04449911 3.86650268 0 7 C-1.98 7 -3.96 7 -6 7 C-6 6.67 -6 6.34 -6 6 C-8.31 5.34 -10.62 4.68 -13 4 C-13 3.01 -13 2.02 -13 1 C-11.58366664 0.83052421 -10.16691467 0.66454493 -8.75 0.5 C-7.56664063 0.36078125 -7.56664063 0.36078125 -6.359375 0.21875 C-4 0 -4 0 0 0 Z " fill="#F70303" transform="translate(99,22)"/>
<path d="M0 0 C0.47123291 0.41717285 0.94246582 0.8343457 1.42797852 1.26416016 C2.36275024 2.08086182 2.36275024 2.08086182 3.31640625 2.9140625 C3.93201416 3.45498535 4.54762207 3.9959082 5.18188477 4.55322266 C7.31435267 6.25014824 9.39701923 7.21121795 12 8 C10.4375 8.75 10.4375 8.75 8 9 C5.49713591 7.86915563 3.32992278 6.47860484 1 5 C1 6.65 1 8.3 1 10 C1.99 10 2.98 10 4 10 C3.649375 10.53625 3.29875 11.0725 2.9375 11.625 C1.68826182 14.78973671 2.37050125 16.66365662 3 20 C3.09335419 23.00207428 3.06005212 25.99739404 3 29 C-0.57213817 22.80829383 -0.13026173 16.04712121 -0.0625 9.125 C-0.05798828 8.24585937 -0.05347656 7.36671875 -0.04882812 6.4609375 C-0.03712337 4.30726197 -0.01919069 2.15362183 0 0 Z " fill="#E61816" transform="translate(0,72)"/>
<path d="M0 0 C1.32 0.66 2.64 1.32 4 2 C3.67 2.66 3.34 3.32 3 4 C4.32 4.33 5.64 4.66 7 5 C7 5.99 7 6.98 7 8 C7.66 8 8.32 8 9 8 C9 8.66 9 9.32 9 10 C8.34 10 7.68 10 7 10 C6.34 11.32 5.68 12.64 5 14 C3 11 3 11 3 8 C0.525 7.01 0.525 7.01 -2 6 C-1.125 1.125 -1.125 1.125 0 0 Z " fill="#F80304" transform="translate(134,24)"/>
<path d="M0 0 C0.144375 0.639375 0.28875 1.27875 0.4375 1.9375 C0.81007181 3.97545146 0.81007181 3.97545146 2 5 C2.4375 7.125 2.4375 7.125 2 10 C-0.80188672 14.07962007 -4.44300471 17.57981222 -8 21 C-6.55049545 17.2089881 -4.84827434 13.6125362 -3 10 C-2.01 10 -1.02 10 0 10 C-0.66 9.01 -1.32 8.02 -2 7 C-2.99 7.33 -3.98 7.66 -5 8 C-5.99 7.34 -6.98 6.68 -8 6 C-7.01 6 -6.02 6 -5 6 C-4.9175 5.38125 -4.835 4.7625 -4.75 4.125 C-4 2 -4 2 -1.9375 0.75 C-1.298125 0.5025 -0.65875 0.255 0 0 Z " fill="#F20507" transform="translate(42,33)"/>
<path d="M0 0 C2.97 0 5.94 0 9 0 C10 4 10 4 9 8 C6.03 8 3.06 8 0 8 C0 5.36 0 2.72 0 0 Z M2 2 C2.99 2.495 2.99 2.495 4 3 C4 3.66 4 4.32 4 5 C3.01 5.495 3.01 5.495 2 6 C3.32 5.67 4.64 5.34 6 5 C5.67 4.01 5.34 3.02 5 2 C4.01 2 3.02 2 2 2 Z " fill="#020202" transform="translate(85,98)"/>
<path d="M0 0 C0.66 0 1.32 0 2 0 C1.47041301 4.8388291 0.05604351 8.14968204 -2.4375 12.3125 C-3.05496094 13.36050781 -3.67242187 14.40851563 -4.30859375 15.48828125 C-6 18 -6 18 -8 19 C-8.99 15.04 -9.98 11.08 -11 7 C-10.01 7.33 -9.02 7.66 -8 8 C-7.67 9.65 -7.34 11.3 -7 13 C-6.67 11.68 -6.34 10.36 -6 9 C-4.68 9 -3.36 9 -2 9 C-2 7.68 -2 6.36 -2 5 C-1.34 5 -0.68 5 0 5 C0 3.35 0 1.7 0 0 Z " fill="#D21616" transform="translate(153,107)"/>
<path d="M0 0 C0.33 1.65 0.66 3.3 1 5 C-3 6.33333333 -7 7.66666667 -11 9 C-11 5.06368636 -9.57142871 3.87394974 -7 1 C-4.53721199 -0.231394 -2.7204945 -0.07159196 0 0 Z " fill="#F80304" transform="translate(45,11)"/>
<path d="M0 0 C0.99 0 1.98 0 3 0 C3 0.99 3 1.98 3 3 C5.64 3 8.28 3 11 3 C4.41674067 6.79803423 -3.02218442 6.12416878 -10.375 6.0625 C-11.39722656 6.05798828 -12.41945313 6.05347656 -13.47265625 6.04882812 C-15.98183194 6.037103 -18.4908849 6.02069176 -21 6 C-21 5.67 -21 5.34 -21 5 C-19.98679687 4.95101562 -18.97359375 4.90203125 -17.9296875 4.8515625 C-16.57810089 4.77647436 -15.22653962 4.70092919 -13.875 4.625 C-13.20984375 4.5940625 -12.5446875 4.563125 -11.859375 4.53125 C-7.60178738 4.28080367 -3.97914217 3.52471803 0 2 C0 1.34 0 0.68 0 0 Z " fill="#E81517" transform="translate(90,154)"/>
<path d="M0 0 C3.125 -0.1875 3.125 -0.1875 6 0 C5.67 0.99 5.34 1.98 5 3 C4.01 3 3.02 3 2 3 C2 3.66 2 4.32 2 5 C2.66 5.33 3.32 5.66 4 6 C3.34 8.31 2.68 10.62 2 13 C0.68 12.34 -0.64 11.68 -2 11 C-2.25 3.375 -2.25 3.375 0 0 Z " fill="#F90405" transform="translate(78,2)"/>
<path d="M0 0 C2.02045442 0.60183749 4.02111039 1.27306096 6 2 C6.33 2.66 6.66 3.32 7 4 C5.02 4 3.04 4 1 4 C1 4.66 1 5.32 1 6 C-2.46153846 9 -2.46153846 9 -5 9 C-5 9.99 -5 10.98 -5 12 C-7.88834003 14.10770759 -9.38462395 15 -13 15 C-12.48050781 14.50371094 -11.96101563 14.00742188 -11.42578125 13.49609375 C-7.07159457 9.25458473 -3.37180778 5.05771167 0 0 Z " fill="#D3100E" transform="translate(126,105)"/>
<path d="M0 0 C0.33 0 0.66 0 1 0 C1.33 3.96 1.66 7.92 2 12 C2.66 12 3.32 12 4 12 C3.67 9.69 3.34 7.38 3 5 C6.69418201 6.231394 8.35109746 8.20791354 11 11 C11.66 10.01 12.32 9.02 13 8 C12.67 9.65 12.34 11.3 12 13 C8.04 13 4.08 13 0 13 C0 8.71 0 4.42 0 0 Z " fill="#C71E17" transform="translate(77,140)"/>
<path d="M0 0 C0.78375 0.04125 1.5675 0.0825 2.375 0.125 C3 2.4375 3 2.4375 3.375 5.125 C2.385 6.61 2.385 6.61 1.375 8.125 C-0.275 7.795 -1.925 7.465 -3.625 7.125 C-4.25 4.75 -4.25 4.75 -4.625 2.125 C-2.625 0.125 -2.625 0.125 0 0 Z " fill="#D21011" transform="translate(68.625,140.875)"/>
<path d="M0 0 C4.18423892 3.50897269 8.19588166 7.08060535 12 11 C9.36 10.67 6.72 10.34 4 10 C4 9.01 4 8.02 4 7 C2.68 7 1.36 7 0 7 C0 6.01 0 5.02 0 4 C-0.99 3.34 -1.98 2.68 -3 2 C-2.01 1.34 -1.02 0.68 0 0 Z " fill="#E70A0B" transform="translate(38,112)"/>
<path d="M0 0 C0.66 0.99 1.32 1.98 2 3 C1.34 3 0.68 3 0 3 C0.020625 4.27875 0.04125 5.5575 0.0625 6.875 C0.125 10.75 0.125 10.75 -1 13 C-1.66 13 -2.32 13 -3 13 C-3.02715383 14.74991334 -3.04646551 16.49994945 -3.0625 18.25 C-3.07410156 19.22453125 -3.08570313 20.1990625 -3.09765625 21.203125 C-3.01195577 23.65758678 -2.70706066 25.66168914 -2 28 C-4.50876482 26.14569557 -5.00457482 24.98098217 -5.74609375 21.8984375 C-6.04786961 17.26501738 -5.13244981 14.01339987 -3.625 9.6875 C-3.39039063 8.97271484 -3.15578125 8.25792969 -2.9140625 7.52148438 C-2.05951903 4.94571557 -1.21526908 2.43053816 0 0 Z " fill="#CD1111" transform="translate(7,45)"/>
<path d="M0 0 C0.33 0 0.66 0 1 0 C1.07654536 4.51617599 1.10228696 8.59085217 0 13 C-0.99 13 -1.98 13 -3 13 C-3 12.34 -3 11.68 -3 11 C-4.98 11 -6.96 11 -9 11 C-9 10.01 -9 9.02 -9 8 C-5.91190305 6.23537317 -4.76687864 6 -1 6 C-0.67 4.02 -0.34 2.04 0 0 Z " fill="#DC1212" transform="translate(81,8)"/>
<path d="M0 0 C6.52307692 -0.36923077 6.52307692 -0.36923077 8.9375 1.5 C9.288125 1.995 9.63875 2.49 10 3 C8.02 3.33 6.04 3.66 4 4 C4.33 6.31 4.66 8.62 5 11 C4.34 10.67 3.68 10.34 3 10 C3 7.36 3 4.72 3 2 C2.34 2 1.68 2 1 2 C1 5.96 1 9.92 1 14 C0.67 14 0.34 14 0 14 C0 11.03 0 8.06 0 5 C-0.66 5 -1.32 5 -2 5 C-1.34 3.35 -0.68 1.7 0 0 Z " fill="#DD110F" transform="translate(88,134)"/>
<path d="M0 0 C0.12375 0.804375 0.2475 1.60875 0.375 2.4375 C0.684375 3.7059375 0.684375 3.7059375 1 5 C1.66 5.33 2.32 5.66 3 6 C3 7.65 3 9.3 3 11 C1.68 11.33 0.36 11.66 -1 12 C-1 10.68 -1 9.36 -1 8 C-2.95927063 6.2856382 -4.95880212 4.61594832 -7 3 C-7 2.34 -7 1.68 -7 1 C-2.25 0 -2.25 0 0 0 Z " fill="#E7080A" transform="translate(99,129)"/>
<path d="M0 0 C0.66 0 1.32 0 2 0 C2.33 1.32 2.66 2.64 3 4 C3.66 2.68 4.32 1.36 5 0 C5.66 0 6.32 0 7 0 C8.25664978 2.90600261 9 4.79604584 9 8 C8.34 8 7.68 8 7 8 C7 7.34 7 6.68 7 6 C6.34 6 5.68 6 5 6 C5 6.66 5 7.32 5 8 C3.35 8 1.7 8 0 8 C0 5.36 0 2.72 0 0 Z " fill="#010101" transform="translate(96,98)"/>
<path d="M0 0 C0.66 0 1.32 0 2 0 C2.33 0.66 2.66 1.32 3 2 C3.33 1.34 3.66 0.68 4 0 C4.66 0 5.32 0 6 0 C6 2.64 6 5.28 6 8 C3.69 8 1.38 8 -1 8 C-1.04241723 5.66705225 -1.04092937 3.33297433 -1 1 C-0.67 0.67 -0.34 0.34 0 0 Z " fill="#010101" transform="translate(55,98)"/>
<path d="M0 0 C2.17988446 4.35976891 2.74098925 6.22473597 2 11 C-0.08100216 13.37161593 -2.41676262 15.20095968 -5 17 C-5 16.34 -5 15.68 -5 15 C-5.99 14.67 -6.98 14.34 -8 14 C-3.375 10 -3.375 10 0 10 C0 6.7 0 3.4 0 0 Z " fill="#DB1413" transform="translate(141,120)"/>
<path d="M0 0 C2.5 1.375 2.5 1.375 5 3 C5 3.66 5 4.32 5 5 C3.68 4.67 2.36 4.34 1 4 C0.67 4.66 0.34 5.32 0 6 C0.66 6 1.32 6 2 6 C2 7.65 2 9.3 2 11 C2.66 11 3.32 11 4 11 C4 13.31 4 15.62 4 18 C2.19511508 14.46032279 0.53532658 10.85940561 -1.125 7.25 C-1.66382812 6.07953125 -2.20265625 4.9090625 -2.7578125 3.703125 C-3.16773437 2.81109375 -3.57765625 1.9190625 -4 1 C-2.68 1.33 -1.36 1.66 0 2 C0 1.34 0 0.68 0 0 Z " fill="#DA0E0E" transform="translate(127,49)"/>
<path d="M0 0 C0.66 0 1.32 0 2 0 C2.65234375 1.765625 2.65234375 1.765625 3 4 C2.00390625 5.921875 2.00390625 5.921875 0.5625 7.75 C0.08941406 8.36359375 -0.38367187 8.9771875 -0.87109375 9.609375 C-1.24363281 10.06828125 -1.61617187 10.5271875 -2 11 C-2.33 9.68 -2.66 8.36 -3 7 C-4.32 7.33 -5.64 7.66 -7 8 C-6.02133662 6.85373678 -5.04205413 5.70800212 -4.0625 4.5625 C-3.51722656 3.92441406 -2.97195312 3.28632812 -2.41015625 2.62890625 C-1.63204305 1.73008851 -0.84063472 0.84063472 0 0 Z " fill="#D41011" transform="translate(36,123)"/>
<path d="M0 0 C0.33 0.66 0.66 1.32 1 2 C1.99 1.67 2.98 1.34 4 1 C3.34 2.32 2.68 3.64 2 5 C2 4.34 2 3.68 2 3 C1.34 3 0.68 3 0 3 C-0.33 3.99 -0.66 4.98 -1 6 C-1.99 6.33 -2.98 6.66 -4 7 C-4.66 7.66 -5.32 8.32 -6 9 C-6 8.01 -6 7.02 -6 6 C-6.99 6.66 -7.98 7.32 -9 8 C-11.1875 7.625 -11.1875 7.625 -13 7 C-12.31292969 6.66226563 -11.62585938 6.32453125 -10.91796875 5.9765625 C-10.01691406 5.53054687 -9.11585937 5.08453125 -8.1875 4.625 C-7.29417969 4.18414062 -6.40085937 3.74328125 -5.48046875 3.2890625 C-2.85443619 1.98133095 -2.85443619 1.98133095 0 0 Z " fill="#E00B0E" transform="translate(112,121)"/>
<path d="M0 0 C0 0.66 0 1.32 0 2 C-1.65 2.33 -3.3 2.66 -5 3 C-5 2.34 -5 1.68 -5 1 C-2 0 -2 0 0 0 Z M-14 2 C-11.03 2.33 -8.06 2.66 -5 3 C-5 3.99 -5 4.98 -5 6 C-9.455 6.495 -9.455 6.495 -14 7 C-14.33 6.01 -14.66 5.02 -15 4 C-14.67 3.34 -14.34 2.68 -14 2 Z " fill="#F90303" transform="translate(83,20)"/>
<path d="M0 0 C1.32 0.66 2.64 1.32 4 2 C3.125 6.875 3.125 6.875 2 8 C0.33382885 8.04063832 -1.33388095 8.042721 -3 8 C-1.125 1.125 -1.125 1.125 0 0 Z " fill="#CC1212" transform="translate(53,136)"/>
<path d="M0 0 C2.97 0 5.94 0 9 0 C9 1.98 9 3.96 9 6 C7.35 6.33 5.7 6.66 4 7 C3.67 6.01 3.34 5.02 3 4 C4.65 3.67 6.3 3.34 8 3 C6.87465895 1.64381501 6.87465895 1.64381501 3.9375 1.9375 C2.968125 1.958125 1.99875 1.97875 1 2 C0.67 3.32 0.34 4.64 0 6 C0 4.02 0 2.04 0 0 Z " fill="#D11412" transform="translate(68,7)"/>
<path d="M0 0 C-1.98 0.33 -3.96 0.66 -6 1 C-5.67 2.32 -5.34 3.64 -5 5 C-6.9375 5.5625 -6.9375 5.5625 -9 6 C-9.33 5.67 -9.66 5.34 -10 5 C-11.99958364 4.95919217 -14.00045254 4.95745644 -16 5 C-11.53321948 1.09156705 -5.86504904 -1.93756084 0 0 Z " fill="#D41111" transform="translate(59,4)"/>
<path d="M0 0 C0.28875 0.639375 0.5775 1.27875 0.875 1.9375 C1.82823451 4.15206079 1.82823451 4.15206079 4 5 C3.34 5 2.68 5 2 5 C1.67 5.99 1.34 6.98 1 8 C0.34 7.67 -0.32 7.34 -1 7 C-4.0745356 7.7763932 -4.0745356 7.7763932 -6 10 C-6 6.36672806 -5.04413589 4.95264073 -3 2 C-2.01 1.34 -1.02 0.68 0 0 Z " fill="#FA0406" transform="translate(124,112)"/>
<path d="M0 0 C1.32 0 2.64 0 4 0 C4 0.66 4 1.32 4 2 C5.98 2 7.96 2 10 2 C11.66670026 5.52948291 12.13583456 7.28272326 11 11 C10.62488281 10.54109375 10.24976563 10.0821875 9.86328125 9.609375 C6.82545052 5.96703891 3.84619007 2.82808093 0 0 Z " fill="#D8100F" transform="translate(130,103)"/>
<path d="M0 0 C2.97 0.495 2.97 0.495 6 1 C6.04254356 2.99954746 6.04080783 5.00041636 6 7 C5 8 5 8 2.4375 8.0625 C1.633125 8.041875 0.82875 8.02125 0 8 C0 5.36 0 2.72 0 0 Z M2 2 C2 3.32 2 4.64 2 6 C2.66 6 3.32 6 4 6 C3.67 4.68 3.34 3.36 3 2 C2.67 2 2.34 2 2 2 Z " fill="#020202" transform="translate(62,98)"/>
<path d="M0 0 C0.66 0 1.32 0 2 0 C2 0.66 2 1.32 2 2 C2.556875 1.649375 3.11375 1.29875 3.6875 0.9375 C6.53886783 -0.21845993 8.08517222 0.19032562 11 1 C11 1.99 11 2.98 11 4 C9.68 3.34 8.36 2.68 7 2 C4.69 4.31 2.38 6.62 0 9 C-0.66 8.01 -1.32 7.02 -2 6 C-1 4 -1 4 1 3 C0.67 2.01 0.34 1.02 0 0 Z " fill="#D90E0F" transform="translate(118,24)"/>
<path d="M0 0 C1.75 2.375 1.75 2.375 3 5 C2.67 5.66 2.34 6.32 2 7 C1.54625 6.505 1.0925 6.01 0.625 5.5 C-0.87635519 3.77390663 -0.87635519 3.77390663 -3 4 C-3.66 4.66 -4.32 5.32 -5 6 C-5 5.34 -5 4.68 -5 4 C-6.98 4.99 -8.96 5.98 -11 7 C-11 6.34 -11 5.68 -11 5 C-9.35546875 3.7109375 -9.35546875 3.7109375 -7.1875 2.375 C-6.47980469 1.92898437 -5.77210937 1.48296875 -5.04296875 1.0234375 C-3 0 -3 0 0 0 Z " fill="#D21314" transform="translate(35,105)"/>
<path d="M0 0 C0.66 0.66 1.32 1.32 2 2 C1.01 2.495 1.01 2.495 0 3 C0.66 4.32 1.32 5.64 2 7 C0.53890937 6.74445946 -0.91888096 6.46999628 -2.375 6.1875 C-3.18710937 6.03667969 -3.99921875 5.88585937 -4.8359375 5.73046875 C-7 5 -7 5 -9 2 C-7.54536519 1.61090015 -6.08608793 1.23911971 -4.625 0.875 C-3.40683594 0.56175781 -3.40683594 0.56175781 -2.1640625 0.2421875 C-1.44992188 0.16226563 -0.73578125 0.08234375 0 0 Z " fill="#FA0404" transform="translate(52,146)"/>
<path d="M0 0 C3.09394429 3.09394429 4.11074144 6.76294449 5 11 C4.96232524 14.12700491 4.54080314 16.90267295 4 20 C3.67 20 3.34 20 3 20 C2.92652344 18.95199219 2.92652344 18.95199219 2.8515625 17.8828125 C2.77679688 16.97273438 2.70203125 16.06265625 2.625 15.125 C2.55539063 14.22007813 2.48578125 13.31515625 2.4140625 12.3828125 C2.20431868 9.82058097 2.20431868 9.82058097 0 8 C-1.25714286 2.51428571 -1.25714286 2.51428571 0 0 Z " fill="#CE1214" transform="translate(154,50)"/>
<path d="M0 0 C0.99 0 1.98 0 3 0 C3.33 1.32 3.66 2.64 4 4 C4.33 3.67 4.66 3.34 5 3 C7.67058851 2.85884839 10.32432238 2.95752893 13 3 C13 3.66 13 4.32 13 5 C8.92630576 7.03684712 6.41062136 7.0257259 2 6 C2 4.68 2 3.36 2 2 C1.34 2 0.68 2 0 2 C0 1.34 0 0.68 0 0 Z " fill="#F90304" transform="translate(54,22)"/>
<path d="M0 0 C1.9375 0.3125 1.9375 0.3125 4 1 C4.33 1.99 4.66 2.98 5 4 C5.66 4.33 6.32 4.66 7 5 C6.67 5.33 6.34 5.66 6 6 C5.63239269 8.32817964 5.29758419 10.6618385 5 13 C4.34 12.01 3.68 11.02 3 10 C2.01 10 1.02 10 0 10 C0.33 9.34 0.66 8.68 1 8 C1.24787017 3.85496339 1.24787017 3.85496339 0 0 Z " fill="#CF1113" transform="translate(57,135)"/>
<path d="M0 0 C0.66 0.33 1.32 0.66 2 1 C0.02 1.99 0.02 1.99 -2 3 C-2 3.66 -2 4.32 -2 5 C-2.66 5.474375 -3.32 5.94875 -4 6.4375 C-4.99 7.2109375 -4.99 7.2109375 -6 8 C-6 8.99 -6 9.98 -6 11 C-6.99 11 -7.98 11 -9 11 C-9.33 9.68 -9.66 8.36 -10 7 C-9.01 7 -8.02 7 -7 7 C-7 5.68 -7 4.36 -7 3 C-5.68 3 -4.36 3 -3 3 C-3 2.34 -3 1.68 -3 1 C-2.01 0.67 -1.02 0.34 0 0 Z " fill="#DB0F0D" transform="translate(34,120)"/>
<path d="M0 0 C0.99 0.33 1.98 0.66 3 1 C2.53980469 1.99128906 2.07960938 2.98257813 1.60546875 4.00390625 C-0.0683717 7.90953396 -0.93891842 11.76916869 -1.6875 15.9375 C-1.81705078 16.62134766 -1.94660156 17.30519531 -2.08007812 18.00976562 C-2.39389598 19.67183798 -2.69799166 21.33574127 -3 23 C-3.33 23 -3.66 23 -4 23 C-3.45118943 16.64780958 -2.83488387 10.32126362 -2 4 C-1.34 4 -0.68 4 0 4 C0 2.68 0 1.36 0 0 Z " fill="#D41D19" transform="translate(31,55)"/>
<path d="M0 0 C1.5 1.3125 1.5 1.3125 3 3 C3 3.99 3 4.98 3 6 C0.36 5.34 -2.28 4.68 -5 4 C-4.67 5.32 -4.34 6.64 -4 8 C-4.99 7.67 -5.98 7.34 -7 7 C-6.67 5.35 -6.34 3.7 -6 2 C-4.02 1.34 -2.04 0.68 0 0 Z " fill="#D01314" transform="translate(30,29)"/>
<path d="M0 0 C0.33 0 0.66 0 1 0 C1 2.97 1 5.94 1 9 C1.66 9.33 2.32 9.66 3 10 C2.67 10.66 2.34 11.32 2 12 C2.99 12.33 3.98 12.66 5 13 C0.58937864 14.0257259 -1.92630576 14.03684712 -6 12 C-2.25 10 -2.25 10 0 10 C-0.185625 8.906875 -0.37125 7.81375 -0.5625 6.6875 C-1 3 -1 3 0 0 Z " fill="#D51413" transform="translate(90,10)"/>
<path d="M0 0 C0 1.32 0 2.64 0 4 C-0.5775 4.04125 -1.155 4.0825 -1.75 4.125 C-5.13312465 5.44065958 -6.19222685 7.96552364 -8 11 C-8.98120464 7.94736336 -8.98120464 6.05263664 -8 3 C-6.68 3 -5.36 3 -4 3 C-4 2.34 -4 1.68 -4 1 C-2 0 -2 0 0 0 Z " fill="#DE0E13" transform="translate(102,8)"/>
<path d="M0 0 C0.66 0.33 1.32 0.66 2 1 C1.34 2.98 0.68 4.96 0 7 C0.66 7 1.32 7 2 7 C2 6.34 2 5.68 2 5 C2.99 5 3.98 5 5 5 C5.33 4.01 5.66 3.02 6 2 C6.125 4.375 6.125 4.375 6 7 C5.34 7.66 4.68 8.32 4 9 C1.375 8.625 1.375 8.625 -1 8 C-1.625 5.6875 -1.625 5.6875 -2 3 C-1.34 2.01 -0.68 1.02 0 0 Z " fill="#CE1415" transform="translate(16,54)"/>
<path d="M0 0 C4.97093824 0.41153737 9.44508386 0.79600832 14 3 C14 3.33 14 3.66 14 4 C9.545 4.495 9.545 4.495 5 5 C4.67 4.01 4.34 3.02 4 2 C2.68 2 1.36 2 0 2 C0 1.34 0 0.68 0 0 Z " fill="#D60C0D" transform="translate(93,1)"/>
<path d="M0 0 C2.15377564 2.62198774 3.40072174 4.64404172 4 8 C3.01 7.67 2.02 7.34 1 7 C1.33 8.98 1.66 10.96 2 13 C-2.875 8.375 -2.875 8.375 -4 5 C-3.34 5 -2.68 5 -2 5 C-2 5.66 -2 6.32 -2 7 C-1.34 6.67 -0.68 6.34 0 6 C0 4.02 0 2.04 0 0 Z " fill="#D11214" transform="translate(119,125)"/>
<path d="M0 0 C2.16874252 0.50603992 3.99967627 0.99983813 6 2 C6 3.98 6 5.96 6 8 C4.35 8 2.7 8 1 8 C1 7.01 1 6.02 1 5 C1.99 5 2.98 5 4 5 C4 4.34 4 3.68 4 3 C2.68 3 1.36 3 0 3 C0 2.01 0 1.02 0 0 Z " fill="#C41818" transform="translate(95,139)"/>
<path d="M0 0 C2 3 2 3 2 7 C-2.07142857 10 -2.07142857 10 -5 10 C-5.33 9.01 -5.66 8.02 -6 7 C-4.68 6.67 -3.36 6.34 -2 6 C-2 5.34 -2 4.68 -2 4 C-1.34 4 -0.68 4 0 4 C0 2.68 0 1.36 0 0 Z " fill="#D91317" transform="translate(30,96)"/>
<path d="M0 0 C0.66 0 1.32 0 2 0 C2.75 2.125 2.75 2.125 3 5 C1.73339467 7.04291182 0.40113616 9.04690112 -1 11 C-1 11.99 -1 12.98 -1 14 C-1.66 14 -2.32 14 -3 14 C-2.28547412 9.23649415 -1.20465156 4.65798604 0 0 Z " fill="#CF100E" transform="translate(131,89)"/>
<path d="M0 0 C1.98 0 3.96 0 6 0 C6 1.65 6 3.3 6 5 C2.25 6.125 2.25 6.125 0 5 C0 3.35 0 1.7 0 0 Z " fill="#F60502" transform="translate(123,45)"/>
<path d="M0 0 C1.32 0.33 2.64 0.66 4 1 C4 2.32 4 3.64 4 5 C5.32 5.33 6.64 5.66 8 6 C6.68 6.99 5.36 7.98 4 9 C4 8.34 4 7.68 4 7 C3.01 7 2.02 7 1 7 C0.67 4.69 0.34 2.38 0 0 Z " fill="#F2090A" transform="translate(120,132)"/>
<path d="M0 0 C0.99 0.33 1.98 0.66 3 1 C2.34 2.98 1.68 4.96 1 7 C0.01 7 -0.98 7 -2 7 C-2 7.66 -2 8.32 -2 9 C-2.66 9 -3.32 9 -4 9 C-3.625 6.5625 -3.625 6.5625 -3 4 C-2.34 3.67 -1.68 3.34 -1 3 C-0.67 2.01 -0.34 1.02 0 0 Z " fill="#F60402" transform="translate(20,52)"/>
<path d="M0 0 C2.97 0.495 2.97 0.495 6 1 C6 1.99 6 2.98 6 4 C7.4540625 4.4021875 7.4540625 4.4021875 8.9375 4.8125 C9.948125 5.204375 10.95875 5.59625 12 6 C12.33 6.99 12.66 7.98 13 9 C7.97290493 7.42903279 3.97133531 4.38006951 0 1 C0 0.67 0 0.34 0 0 Z " fill="#D21616" transform="translate(27,140)"/>
<path d="M0 0 C0.66 0 1.32 0 2 0 C1.22095672 10.55808656 1.22095672 10.55808656 -1 15 C-1.33 15 -1.66 15 -2 15 C-2 12.69 -2 10.38 -2 8 C-1.34 8 -0.68 8 0 8 C0 5.36 0 2.72 0 0 Z " fill="#CA1617" transform="translate(157,92)"/>
<path d="M0 0 C1.98 1.32 3.96 2.64 6 4 C5.01 4.495 5.01 4.495 4 5 C3.67 5.99 3.34 6.98 3 8 C2.01 8 1.02 8 0 8 C-0.33 8.66 -0.66 9.32 -1 10 C-2.32 8.35 -3.64 6.7 -5 5 C-2.69 5.66 -0.38 6.32 2 7 C1.34 4.69 0.68 2.38 0 0 Z " fill="#B82421" transform="translate(34,31)"/>
<path d="M0 0 C1.4540625 0.0309375 1.4540625 0.0309375 2.9375 0.0625 C2.9375 0.3925 2.9375 0.7225 2.9375 1.0625 C1.2875 1.3925 -0.3625 1.7225 -2.0625 2.0625 C-1.8975 2.990625 -1.7325 3.91875 -1.5625 4.875 C-1.0625 8.0625 -1.0625 8.0625 -1.0625 11.0625 C-3.0425 10.4025 -5.0225 9.7425 -7.0625 9.0625 C-6.0725 8.7325 -5.0825 8.4025 -4.0625 8.0625 C-4.083125 6.928125 -4.10375 5.79375 -4.125 4.625 C-4.04530802 0.08255731 -4.04530802 0.08255731 0 0 Z " fill="#C7141A" transform="translate(111.0625,14.9375)"/>
<path d="M0 0 C-3.34939881 2.02558881 -5.86962551 2.21738987 -9.75 2.125 C-10.73484375 2.10695312 -11.7196875 2.08890625 -12.734375 2.0703125 C-13.85585938 2.03550781 -13.85585938 2.03550781 -15 2 C-10.00217593 -1.33188271 -5.76283205 -1.23489258 0 0 Z " fill="#D90E0C" transform="translate(74,1)"/>
<path d="M0 0 C-2.05123248 2.05123248 -3.27005063 2.64147118 -5.9375 3.625 C-6.97197266 4.01558594 -6.97197266 4.01558594 -8.02734375 4.4140625 C-10 5 -10 5 -13 5 C-13 4.34 -13 3.68 -13 3 C-11.68 3 -10.36 3 -9 3 C-9 2.34 -9 1.68 -9 1 C-5.8035914 -0.06546953 -3.34252724 -0.07427838 0 0 Z " fill="#D21510" transform="translate(115,152)"/>
<path d="M0 0 C2 3 2 3 2 5 C6.41522109 3.73025028 6.41522109 3.73025028 10 1 C9.67 2.65 9.34 4.3 9 6 C2.84765625 6.09765625 2.84765625 6.09765625 1 6 C0 5 0 5 -0.0625 2.4375 C-0.041875 1.633125 -0.02125 0.82875 0 0 Z " fill="#D3100D" transform="translate(93,145)"/>
<path d="M0 0 C0.33 0 0.66 0 1 0 C3.27678571 8.03571429 3.27678571 8.03571429 2 12 C2 11.34 2 10.68 2 10 C0.35 10 -1.3 10 -3 10 C-2.34 9.01 -1.68 8.02 -1 7 C-0.60612212 4.67612053 -0.26513915 2.34206251 0 0 Z " fill="#EC0805" transform="translate(27,88)"/>
<path d="M0 0 C0.66 0.33 1.32 0.66 2 1 C-1.20760251 4.80635497 -4.40746109 8.54563567 -8 12 C-6.54938389 8.20608095 -5.00850189 4.53496333 -3 1 C-2.01 0.67 -1.02 0.34 0 0 Z " fill="#D61918" transform="translate(42,42)"/>
<path d="M0 0 C2.16874252 0.50603992 3.99967627 0.99983813 6 2 C6.33 1.34 6.66 0.68 7 0 C7.33 0.99 7.66 1.98 8 3 C6.68 3.33 5.36 3.66 4 4 C4.33 5.32 4.66 6.64 5 8 C4.34 8 3.68 8 3 8 C0 2.25 0 2.25 0 0 Z " fill="#CC1515" transform="translate(110,18)"/>
<path d="M0 0 C1.33617352 0.97528737 2.6688751 1.95533319 4 2.9375 C4.7425 3.48277344 5.485 4.02804688 6.25 4.58984375 C6.8275 5.05519531 7.405 5.52054687 8 6 C8 6.33 8 6.66 8 7 C5.36 6.67 2.72 6.34 0 6 C0 4 0 2 0 0 Z " fill="#D50D13" transform="translate(42,116)"/>
<path d="M0 0 C2 1 4 2 6 3 C6.66 2.01 7.32 1.02 8 0 C7.67 1.65 7.34 3.3 7 5 C4.69 4.67 2.38 4.34 0 4 C0 2.68 0 1.36 0 0 Z " fill="#D6100D" transform="translate(82,148)"/>
<path d="M0 0 C1.32 0 2.64 0 4 0 C4 0.66 4 1.32 4 2 C4.99 1.67 5.98 1.34 7 1 C8 2 8 2 8.0625 5.0625 C8.041875 6.031875 8.02125 7.00125 8 8 C6.29115995 6.37660195 4.62553283 4.70680947 3 3 C3 2.34 3 1.68 3 1 C2.01 0.67 1.02 0.34 0 0 Z " fill="#CA1715" transform="translate(78,139)"/>
<path d="M0 0 C-0.1875 2.3125 -0.1875 2.3125 -1 5 C-3.5625 6.8125 -3.5625 6.8125 -6 8 C-5.67 6.68 -5.34 5.36 -5 4 C-4.01 4 -3.02 4 -2 4 C-2.99 3.01 -3.98 2.02 -5 1 C-3 0 -3 0 0 0 Z " fill="#DE0C0E" transform="translate(133,137)"/>
<path d="M0 0 C0.44730469 0.40992187 0.89460938 0.81984375 1.35546875 1.2421875 C4.73744485 4.25640074 7.579668 6.66050545 12 8 C10.4375 8.75 10.4375 8.75 8 9 C5.36581789 8.04525277 3.13944699 6.81289982 1 5 C0.0625 2.25 0.0625 2.25 0 0 Z " fill="#C51215" transform="translate(0,72)"/>
<path d="M0 0 C0.33 0 0.66 0 1 0 C1.08090971 1.62418745 1.13914995 3.24951745 1.1875 4.875 C1.22230469 5.77992187 1.25710937 6.68484375 1.29296875 7.6171875 C1.19628906 8.40351562 1.09960938 9.18984375 1 10 C0.01 10.66 -0.98 11.32 -2 12 C-2.25 6.375 -2.25 6.375 0 3 C-0.66 2.67 -1.32 2.34 -2 2 C-1.34 1.34 -0.68 0.68 0 0 Z " fill="#E7090B" transform="translate(156,62)"/>
<path d="M0 0 C1.65 0 3.3 0 5 0 C5 2.31 5 4.62 5 7 C3.68 7 2.36 7 1 7 C1 7.66 1 8.32 1 9 C0.01 8.67 -0.98 8.34 -2 8 C-1.195625 7.401875 -0.39125 6.80375 0.4375 6.1875 C3.22327984 4.19052724 3.22327984 4.19052724 4 1 C2.68 0.67 1.36 0.34 0 0 Z " fill="#CE0C11" transform="translate(144,56)"/>
<path d="M0 0 C0.66 0.33 1.32 0.66 2 1 C1.67 3.64 1.34 6.28 1 9 C0.67 7.68 0.34 6.36 0 5 C-1.98 5.33 -3.96 5.66 -6 6 C-5.67 5.01 -5.34 4.02 -5 3 C-5 3.66 -5 4.32 -5 5 C-3.35 3.35 -1.7 1.7 0 0 Z " fill="#BB2220" transform="translate(38,131)"/>
<path d="M0 0 C3.63 1.65 7.26 3.3 11 5 C6.58830306 6.10292424 5.04131206 5.88594563 1 4 C0.67 2.68 0.34 1.36 0 0 Z " fill="#CD1617" transform="translate(50,123)"/>
<path d="M0 0 C2.75 0.125 2.75 0.125 6 1 C8.375 4.0625 8.375 4.0625 10 7 C9.67 7.66 9.34 8.32 9 9 C7.49704815 7.69088122 5.99770689 6.37761608 4.5 5.0625 C3.6646875 4.33160156 2.829375 3.60070313 1.96875 2.84765625 C1.3190625 2.23792969 0.669375 1.62820312 0 1 C0 0.67 0 0.34 0 0 Z " fill="#D11415" transform="translate(109,36)"/>
<path d="M0 0 C6.42857143 4.14285714 6.42857143 4.14285714 9 7 C7.68 7 6.36 7 5 7 C4.67 6.34 4.34 5.68 4 5 C1.47266765 4.34444881 1.47266765 4.34444881 -1 4 C-0.67 2.68 -0.34 1.36 0 0 Z " fill="#D70E0E" transform="translate(123,12)"/>
<path d="M0 0 C0.66 0 1.32 0 2 0 C2 0.99 2 1.98 2 3 C3.65 3.33 5.3 3.66 7 4 C7 4.33 7 4.66 7 5 C4.36 5.33 1.72 5.66 -1 6 C-0.67 4.02 -0.34 2.04 0 0 Z " fill="#DE0B0D" transform="translate(45,142)"/>
<path d="M0 0 C0.33 1.32 0.66 2.64 1 4 C-1 5 -3 6 -5 7 C-4.75 4.625 -4.75 4.625 -4 2 C-1.9375 0.6875 -1.9375 0.6875 0 0 Z " fill="#E40C0E" transform="translate(123,118)"/>
<path d="M0 0 C0.99 0 1.98 0 3 0 C3.33 1.98 3.66 3.96 4 6 C3.34 6 2.68 6 2 6 C2 6.66 2 7.32 2 8 C1.34 7.67 0.68 7.34 0 7 C0 4.69 0 2.38 0 0 Z " fill="#F30301" transform="translate(51,11)"/>
<path d="M0 0 C0.99 0.33 1.98 0.66 3 1 C4.1875 3.5625 4.1875 3.5625 5 6 C3.35 5.67 1.7 5.34 0 5 C0 3.35 0 1.7 0 0 Z " fill="#F40705" transform="translate(110,132)"/>
<path d="M0 0 C2.02045442 0.60183749 4.02111039 1.27306096 6 2 C6.33 2.66 6.66 3.32 7 4 C4.03 4 1.06 4 -2 4 C-1.34 2.68 -0.68 1.36 0 0 Z " fill="#CD1719" transform="translate(126,105)"/>
<path d="M0 0 C0.66 0.33 1.32 0.66 2 1 C2 3.31 2 5.62 2 8 C2.66 8.33 3.32 8.66 4 9 C2.68 9 1.36 9 0 9 C-0.87890625 2.84765625 -0.87890625 2.84765625 -1 1 C-0.67 0.67 -0.34 0.34 0 0 Z " fill="#CF1C18" transform="translate(121,32)"/>
<path d="M0 0 C1.65 0.33 3.3 0.66 5 1 C5 1.66 5 2.32 5 3 C2.69 3.33 0.38 3.66 -2 4 C-1.34 2.68 -0.68 1.36 0 0 Z " fill="#EA090E" transform="translate(135,39)"/>
<path d="M0 0 C-2.31 1.65 -4.62 3.3 -7 5 C-7 3.35 -7 1.7 -7 0 C-4 -1 -4 -1 0 0 Z " fill="#DC1311" transform="translate(51,37)"/>
<path d="M0 0 C0 0.33 0 0.66 0 1 C-4.29 1.99 -8.58 2.98 -13 4 C-13 3.01 -13 2.02 -13 1 C-8.61414671 0.29826347 -4.44209357 -0.10834375 0 0 Z " fill="#CB1E1E" transform="translate(72,28)"/>
<path d="M0 0 C1.98 1.65 3.96 3.3 6 5 C5.38125 5.12375 4.7625 5.2475 4.125 5.375 C1.80879168 5.87197356 1.80879168 5.87197356 0 8 C-0.33 7.01 -0.66 6.02 -1 5 C-0.34 5 0.32 5 1 5 C0.67 3.35 0.34 1.7 0 0 Z " fill="#E01111" transform="translate(132,19)"/>
<path d="M0 0 C0.66 0.33 1.32 0.66 2 1 C-1.01887244 4.48331435 -3.56909529 5.79157144 -8 7 C-5.42215154 4.35247996 -3.08351902 2.05567935 0 0 Z " fill="#CE1210" transform="translate(36,12)"/>
<path d="M0 0 C2.97 0 5.94 0 9 0 C9.66 1.32 10.32 2.64 11 4 C7.37 3.01 3.74 2.02 0 1 C0 0.67 0 0.34 0 0 Z " fill="#D31718" transform="translate(93,29)"/>
<path d="M0 0 C4.875 3.625 4.875 3.625 6 7 C5.01 7 4.02 7 3 7 C3 6.01 3 5.02 3 4 C1.68 3.67 0.36 3.34 -1 3 C-0.67 2.01 -0.34 1.02 0 0 Z " fill="#DB1212" transform="translate(138,25)"/>
<path d="M0 0 C-1.98 0.33 -3.96 0.66 -6 1 C-5.67 2.32 -5.34 3.64 -5 5 C-6.32 5.33 -7.64 5.66 -9 6 C-8.1875 3.0625 -8.1875 3.0625 -7 0 C-3.86650268 -1.04449911 -3.01031744 -0.93423645 0 0 Z " fill="#DD0F09" transform="translate(59,4)"/>
<path d="M0 0 C0.33 0 0.66 0 1 0 C1 1.65 1 3.3 1 5 C1.66 5.33 2.32 5.66 3 6 C1.68 7.32 0.36 8.64 -1 10 C-0.67 6.7 -0.34 3.4 0 0 Z " fill="#B52522" transform="translate(42,126)"/>
<path d="M0 0 C0.33 0 0.66 0 1 0 C1 1.98 1 3.96 1 6 C-0.98 6 -2.96 6 -5 6 C-3.35830472 3.97945196 -1.69088222 1.97956942 0 0 Z " fill="#CE1513" transform="translate(158,73)"/>
<path d="M0 0 C0.66 0 1.32 0 2 0 C2 2.64 2 5.28 2 8 C1.34 8 0.68 8 0 8 C0 5.36 0 2.72 0 0 Z " fill="#010101" transform="translate(51,98)"/>
<path d="M0 0 C1.32 0 2.64 0 4 0 C4 1.32 4 2.64 4 4 C2.68 3.67 1.36 3.34 0 3 C0 2.01 0 1.02 0 0 Z " fill="#C01F19" transform="translate(42,21)"/>
<path d="M0 0 C0.99 0.33 1.98 0.66 3 1 C3 1.99 3 2.98 3 4 C1.68 3.67 0.36 3.34 -1 3 C-0.67 2.01 -0.34 1.02 0 0 Z " fill="#B1241E" transform="translate(134,47)"/>
<path d="M0 0 C0.99 0.33 1.98 0.66 3 1 C2.67 1.99 2.34 2.98 2 4 C1.01 4 0.02 4 -1 4 C-0.67 2.68 -0.34 1.36 0 0 Z " fill="#BB1E20" transform="translate(125,28)"/>
<path d="M0 0 C1.32 0.33 2.64 0.66 4 1 C3.67 1.99 3.34 2.98 3 4 C2.01 4 1.02 4 0 4 C0 2.68 0 1.36 0 0 Z " fill="#B7201C" transform="translate(84,15)"/>
<path d="M0 0 C1.32 0.33 2.64 0.66 4 1 C4 1.66 4 2.32 4 3 C3.01 3.33 2.02 3.66 1 4 C0.67 2.68 0.34 1.36 0 0 Z " fill="#BF2423" transform="translate(60,18)"/>
<path d="M0 0 C1.98 0.495 1.98 0.495 4 1 C1.525 2.485 1.525 2.485 -1 4 C-0.67 2.68 -0.34 1.36 0 0 Z " fill="#BB1C13" transform="translate(142,58)"/>
<path d="M0 0 C0.99 0.33 1.98 0.66 3 1 C3 1.66 3 2.32 3 3 C2.01 3.33 1.02 3.66 0 4 C0 2.68 0 1.36 0 0 Z " fill="#AF2926" transform="translate(59,13)"/>
<path d="M0 0 C2.475 0.495 2.475 0.495 5 1 C4.67 1.99 4.34 2.98 4 4 C2.68 2.68 1.36 1.36 0 0 Z " fill="#A73136" transform="translate(20,45)"/>
<path d="M0 0 C0.33 0 0.66 0 1 0 C1 1.65 1 3.3 1 5 C0.01 4.67 -0.98 4.34 -2 4 C-1.34 2.68 -0.68 1.36 0 0 Z " fill="#A92930" transform="translate(99,14)"/>
<path d="M0 0 C1.32 0 2.64 0 4 0 C3.67 0.99 3.34 1.98 3 3 C2.01 2.67 1.02 2.34 0 2 C0 1.34 0 0.68 0 0 Z " fill="#A71E2E" transform="translate(84,11)"/>
<path d="M0 0 C0.99 0 1.98 0 3 0 C3 0.99 3 1.98 3 3 C2.01 3 1.02 3 0 3 C0 2.01 0 1.02 0 0 Z " fill="#A51E1D" transform="translate(138,45)"/>
<path d="M0 0 C0.99 0.33 1.98 0.66 3 1 C3 1.66 3 2.32 3 3 C2.01 2.67 1.02 2.34 0 2 C0 1.34 0 0.68 0 0 Z " fill="#99292B" transform="translate(123,126)"/>
<path d="" fill="#602A2A" transform="translate(0,0)"/>
</svg>
